<?xml version="1.0" encoding="UTF-8"?>
<svg version="1.1" xmlns="http://www.w3.org/2000/svg" width="500" height="500">
<path d="M0 0 C0.00808685 1.07883957 0.01617371 2.15767914 0.02450562 3.26921082 C0.10199267 13.43661427 0.18973856 23.60388433 0.28752708 33.7711134 C0.33747138 38.99817946 0.38380171 44.2252255 0.421875 49.45239258 C0.45875121 54.49695887 0.50511775 59.54135686 0.55806351 64.58577919 C0.57659499 66.51025757 0.59170756 68.43477201 0.60334396 70.35930443 C0.62022761 73.05505988 0.64926795 75.75043094 0.68115234 78.44604492 C0.68331253 79.24158279 0.68547272 80.03712067 0.68769836 80.85676575 C0.74997225 84.97863975 1.02037249 88.33975378 3 92 C4.91313095 93.22698662 4.91313095 93.22698662 7.125 93.8125 C7.84945312 94.04582031 8.57390625 94.27914062 9.3203125 94.51953125 C9.87460938 94.67808594 10.42890625 94.83664062 11 95 C11 96.98 11 98.96 11 101 C-17.05 101 -45.1 101 -74 101 C-74 98.69 -74 96.38 -74 94 C-69.545 93.01 -69.545 93.01 -65 92 C-65.56045359 85.05037548 -66.92940275 79.90199082 -69 73 C-80.22 73 -91.44 73 -103 73 C-105.07059725 79.90199082 -106.43954641 85.05037548 -107 92 C-105.3603125 92.4640625 -105.3603125 92.4640625 -103.6875 92.9375 C-101.44592006 93.58337897 -99.2130649 94.2623117 -97 95 C-97 96.98 -97 98.96 -97 101 C-108.22 101 -119.44 101 -131 101 C-131 99.02 -131 97.04 -131 95 C-130.11248047 94.70609375 -130.11248047 94.70609375 -129.20703125 94.40625 C-128.41683594 94.1071875 -127.62664062 93.808125 -126.8125 93.5 C-126.03519531 93.2215625 -125.25789063 92.943125 -124.45703125 92.65625 C-117.40442145 87.90218553 -114.93289696 78.27617272 -112.0625 70.6875 C-111.3531949 68.84640145 -110.64383643 67.00532273 -109.93261719 65.16496277 C-109.42816274 63.8594834 -108.9245993 62.55365942 -108.421875 61.24751282 C-105.2373172 52.98694442 -101.9262531 44.7769449 -98.625 36.5625 C-97.47030932 33.68922014 -96.31651419 30.81558492 -95.1640625 27.94140625 C-94.89361618 27.26762436 -94.62316986 26.59384247 -94.3445282 25.89964294 C-92.14832092 20.41115491 -90.03707824 14.89334515 -87.95849609 9.35913086 C-87 7 -87 7 -86 6 C-84.31391034 5.92794489 -82.62499341 5.91613932 -80.9375 5.9375 C-80.01839844 5.94652344 -79.09929687 5.95554688 -78.15234375 5.96484375 C-77.44207031 5.97644531 -76.73179688 5.98804688 -76 6 C-72.74318644 12.25456241 -70.07149798 18.62506223 -67.5 25.1875 C-63.17310808 36.12282542 -58.71728832 46.99869402 -54.19702148 57.85498047 C-51.83660186 63.53152995 -49.50273816 69.21187581 -47.28588867 74.94604492 C-43.75986543 85.00920746 -43.75986543 85.00920746 -36.625 92.4375 C-35.75875 92.623125 -34.8925 92.80875 -34 93 C-32.88625 93.2475 -31.7725 93.495 -30.625 93.75 C-26.46699869 94.03675871 -23.80601621 93.71643868 -20 92 C-18.1131716 87.73635675 -17.75128801 83.99698881 -17.75708008 79.37133789 C-17.75400345 78.07301529 -17.75092682 76.77469269 -17.74775696 75.43702698 C-17.75465651 74.03223493 -17.76192361 72.62744464 -17.76953125 71.22265625 C-17.77072505 69.76826519 -17.77117579 68.31387334 -17.7709198 66.85948181 C-17.77247996 63.81748598 -17.78073236 60.77560861 -17.79418945 57.73364258 C-17.81116328 53.84907624 -17.81500385 49.96464001 -17.81424427 46.08004093 C-17.81451723 43.07818884 -17.8200189 40.07636475 -17.82724571 37.07452202 C-17.83041111 35.64290008 -17.83239477 34.21127498 -17.83313942 32.77964973 C-17.8353266 30.77244032 -17.84489706 28.76524313 -17.85473633 26.75805664 C-17.85854813 25.61921524 -17.86235992 24.48037384 -17.86628723 23.30702209 C-17.85264366 16.54418865 -17.85264366 16.54418865 -21 11 C-23.65537372 10.43479997 -26.29144713 10.26211802 -29 10 C-29 8.02 -29 6.04 -29 4 C-25.10529437 3.32663096 -21.20907067 2.66248416 -17.3125 2 C-16.20970703 1.80921875 -15.10691406 1.6184375 -13.97070312 1.421875 C-12.90400391 1.24140625 -11.83730469 1.0609375 -10.73828125 0.875 C-9.75899658 0.70742187 -8.77971191 0.53984375 -7.77075195 0.3671875 C-5.13751715 0.01822414 -2.65131495 -0.02614959 0 0 Z M-86 30 C-89.17599706 37.51245458 -92.26098725 45.06125926 -95.3125 52.625 C-95.67408203 53.51413086 -96.03566406 54.40326172 -96.40820312 55.31933594 C-96.74400391 56.1549707 -97.07980469 56.99060547 -97.42578125 57.8515625 C-97.72911377 58.60260254 -98.03244629 59.35364258 -98.3449707 60.12744141 C-99.11006199 61.98400208 -99.11006199 61.98400208 -99 64 C-90.42 64 -81.84 64 -73 64 C-73.85330318 59.73348412 -74.95670287 56.2049247 -76.50390625 52.16796875 C-76.7466478 51.53135818 -76.98938934 50.89474762 -77.23948669 50.23884583 C-78.01013308 48.22029578 -78.78622437 46.20389099 -79.5625 44.1875 C-80.08825252 42.81328944 -80.61364697 41.43894183 -81.13867188 40.06445312 C-82.42164098 36.70803931 -83.7094994 33.35352636 -85 30 C-85.33 30 -85.66 30 -86 30 Z " fill="#11407F" transform="translate(203,205)"/>
<path d="M0 0 C22.07246076 -0.71010598 43.07971501 7.33960838 59.3515625 22.15625 C68.3515625 31.16966282 68.3515625 31.16966282 68.3515625 35.15625 C64.41169826 34.57256641 62.41246683 32.61828174 59.3515625 30.15625 C47.58877417 22.13816956 32.76425032 15.96972216 18.3515625 16.15625 C18.9091626 16.32640625 19.4667627 16.4965625 20.04125977 16.671875 C41.38240357 23.26603633 61.89883252 32.05084847 75.3515625 50.96875 C76.3515625 53.15625 76.3515625 53.15625 76.3515625 56.15625 C73.81142341 56.9738007 71.26963019 57.78540186 68.7265625 58.59375 C68.01371094 58.82384766 67.30085938 59.05394531 66.56640625 59.29101562 C54.73997889 63.03424263 39.53347685 64.83009755 27.9230957 59.50952148 C19.78397431 55.22630209 14.67859076 49.4675813 9.8515625 41.78125 C1.64701287 29.3456546 -7.04401957 21.79573894 -19.6484375 14.15625 C-21.27484823 13.13766576 -22.90015481 12.11731191 -24.5234375 11.09375 C-25.5546875 10.454375 -26.5859375 9.815 -27.6484375 9.15625 C-27.3184375 7.83625 -26.9884375 6.51625 -26.6484375 5.15625 C-17.71326278 2.62520578 -9.29183555 0.54819089 0 0 Z " fill="#B38644" transform="translate(34.6484375,148.84375)"/>
<path d="M0 0 C0.94166016 -0.01160156 1.88332031 -0.02320313 2.85351562 -0.03515625 C10.25707089 -0.0042437 16.26018015 0.81408536 21.8125 6.125 C25.73991202 12.13163015 26.23970553 18.0844146 26.31640625 25.046875 C26.33340073 25.85110901 26.3503952 26.65534302 26.36790466 27.48394775 C26.42064232 30.03088725 26.46117241 32.57781357 26.5 35.125 C26.54401262 37.68639042 26.59071649 40.24765972 26.64280701 42.80889893 C26.67462739 44.39698078 26.70155941 45.9851699 26.72303772 47.57342529 C26.78283793 50.75607304 26.9240041 53.33451229 27.9375 56.375 C30.2475 56.375 32.5575 56.375 34.9375 56.375 C35.4325 58.85 35.4325 58.85 35.9375 61.375 C31.21942712 65.55692824 28.88355527 67.15677368 22.5625 67.625 C18.42328907 67.33953718 16.29880349 66.81958435 12.9375 64.375 C11.55173225 61.73370584 10.78935442 59.26183998 9.9375 56.375 C9.256875 57.2825 8.57625 58.19 7.875 59.125 C3.32140474 64.47547444 -1.05967054 66.49100576 -7.9375 67.3125 C-14.23745643 67.62000726 -19.72865719 67.12972457 -24.7265625 63 C-28.3856381 58.74811327 -28.76443033 54.42950003 -28.47265625 48.953125 C-27.47467344 42.68009019 -23.36084175 39.52030512 -18.54101562 35.95532227 C-13.85580771 32.96799456 -8.71280879 31.03917728 -3.5625 29 C-2.45390625 28.55011719 -1.3453125 28.10023438 -0.203125 27.63671875 C2.50636468 26.53890828 5.21969586 25.45202257 7.9375 24.375 C8.07556256 18.34417649 7.77949719 14.73107163 4.9375 9.375 C1.88766004 7.85008002 -0.7048369 8.13937452 -4.0625 8.375 C-7.1889337 10.84404177 -8.41064326 13.97897055 -10 17.53515625 C-11.0625 19.375 -11.0625 19.375 -14.0625 21.375 C-17.61270021 21.69774547 -20.08982752 21.91518061 -23.25 20.16015625 C-25.0625 18.375 -25.0625 18.375 -25.62890625 16.0703125 C-25.62229661 11.72117113 -25.56654218 9.13919298 -23.125 5.4375 C-15.89988381 0.57160542 -8.53484145 -0.10558567 0 0 Z M-7.78515625 42.04296875 C-9.80610164 44.15043779 -10.06148302 45.36305045 -10.3125 48.3125 C-10.28575478 51.28744441 -10.28575478 51.28744441 -9 53.25 C-5.89028491 55.05564102 -3.58920088 54.79342214 -0.0625 54.375 C3.44457224 52.62146388 5.46446064 51.00571915 7.8125 47.875 C9.46818405 42.72398295 9.1718789 37.73967252 8.9375 32.375 C3.19495093 32.375 -3.71570112 38.41397229 -7.78515625 42.04296875 Z " fill="#0D3E7D" transform="translate(298.0625,239.625)"/>
<path d="M0 0 C-0.00222061 1.1333931 -0.00444122 2.26678619 -0.00672913 3.43452454 C-0.02697908 14.10279386 -0.04198111 24.77105929 -0.05181217 35.43934345 C-0.05703627 40.9243328 -0.06412538 46.40930667 -0.07543945 51.89428711 C-0.08628507 57.18512818 -0.09228041 62.47595433 -0.09487724 67.76680565 C-0.09672846 69.78786644 -0.10034329 71.80892639 -0.10573006 73.82998085 C-0.11296266 76.65530808 -0.11398999 79.48057324 -0.11352539 82.3059082 C-0.1189183 83.56610527 -0.1189183 83.56610527 -0.12442017 84.85176086 C-0.11851447 88.15895238 -0.05333067 90.840008 1 94 C2.8653245 95.01754868 2.8653245 95.01754868 5.0625 95.6875 C5.79597656 95.93886719 6.52945313 96.19023437 7.28515625 96.44921875 C7.85105469 96.63097656 8.41695312 96.81273437 9 97 C9 97.99 9 98.98 9 100 C-7.17 100 -23.34 100 -40 100 C-39.67 98.35 -39.34 96.7 -39 95 C-38.21496094 94.95101562 -37.42992187 94.90203125 -36.62109375 94.8515625 C-28.08205418 94.41909276 -28.08205418 94.41909276 -20 92 C-18.13445269 87.72625715 -17.7512844 83.99987489 -17.75708008 79.37133789 C-17.75400345 78.07301529 -17.75092682 76.77469269 -17.74775696 75.43702698 C-17.75465651 74.03223493 -17.76192361 72.62744464 -17.76953125 71.22265625 C-17.77072505 69.76826519 -17.77117579 68.31387334 -17.7709198 66.85948181 C-17.77247996 63.81748598 -17.78073236 60.77560861 -17.79418945 57.73364258 C-17.81116328 53.84907624 -17.81500385 49.96464001 -17.81424427 46.08004093 C-17.81451723 43.07818884 -17.8200189 40.07636475 -17.82724571 37.07452202 C-17.83041111 35.64290008 -17.83239477 34.21127498 -17.83313942 32.77964973 C-17.8353266 30.77244032 -17.84489706 28.76524313 -17.85473633 26.75805664 C-17.85854813 25.61921524 -17.86235992 24.48037384 -17.86628723 23.30702209 C-17.85264366 16.54418865 -17.85264366 16.54418865 -21 11 C-23.65537372 10.43479997 -26.29144713 10.26211802 -29 10 C-29 8.02 -29 6.04 -29 4 C-25.10529437 3.32663096 -21.20907067 2.66248416 -17.3125 2 C-16.20970703 1.80921875 -15.10691406 1.6184375 -13.97070312 1.421875 C-12.90400391 1.24140625 -11.83730469 1.0609375 -10.73828125 0.875 C-9.75899658 0.70742187 -8.77971191 0.53984375 -7.77075195 0.3671875 C-5.13751715 0.01822414 -2.65131495 -0.02614959 0 0 Z " fill="#0B3B7C" transform="translate(203,205)"/>
<path d="M0 0 C0.66 2.97 1.32 5.94 2 9 C4.1124667 9.22856925 4.1124667 9.22856925 5.55078125 7.5390625 C6.71908314 6.26973229 7.88576915 4.9989128 9.05078125 3.7265625 C12.86073292 0.35181573 16.58049217 -0.27771632 21.5625 -0.25 C22.49191406 -0.25515625 23.42132813 -0.2603125 24.37890625 -0.265625 C27.08712785 0.00882965 28.70463414 0.56925626 31 2 C33.10328813 4.60407102 33.12025094 6.78182912 32.875 10 C32.42115797 12.73325086 31.93911038 14.0974234 30.4375 16.5 C27.01090803 18.60867198 23.86093007 18.79512223 20 18 C17 16 17 16 15 14 C12.53044606 14.41622598 12.53044606 14.41622598 10 16 C8.63560918 18.77931464 7.77700252 21.04739044 7 24 C6.690625 25.175625 6.690625 25.175625 6.375 26.375 C5.09611132 32.20104841 4.79765885 37.93289433 4.75 43.875 C4.74073486 44.60066162 4.73146973 45.32632324 4.72192383 46.07397461 C4.7458655 50.12293446 4.9965258 53.43677408 7 57 C9.85813434 58.34163026 9.85813434 58.34163026 13 59 C13.78375 59.20625 14.5675 59.4125 15.375 59.625 C16.179375 59.810625 16.179375 59.810625 17 60 C17 61.98 17 63.96 17 66 C3.47 66 -10.06 66 -24 66 C-24 64.02 -24 62.04 -24 60 C-23.43410156 59.79503906 -22.86820312 59.59007812 -22.28515625 59.37890625 C-21.55167969 59.10949219 -20.81820313 58.84007812 -20.0625 58.5625 C-19.33160156 58.29566406 -18.60070312 58.02882813 -17.84765625 57.75390625 C-16.01694322 57.14613052 -16.01694322 57.14613052 -15 56 C-14.87397431 53.10140915 -14.81130419 50.22798276 -14.796875 47.328125 C-14.79117493 46.45355652 -14.78547485 45.57898804 -14.77960205 44.67791748 C-14.77013497 42.82174902 -14.76361132 40.96556362 -14.75976562 39.109375 C-14.75008791 36.27573999 -14.71909263 33.44283871 -14.6875 30.609375 C-14.68096739 28.80729598 -14.67571793 27.00521176 -14.671875 25.203125 C-14.6533548 23.93411346 -14.6533548 23.93411346 -14.63446045 22.63946533 C-14.65193825 17.99658618 -14.81985329 14.67415009 -18 11 C-21.59919423 10.10407917 -21.59919423 10.10407917 -25 10 C-25 8.02 -25 6.04 -25 4 C-21.77245186 3.32533254 -18.54273065 2.66169431 -15.3125 2 C-14.40048828 1.80921875 -13.48847656 1.6184375 -12.54882812 1.421875 C-11.66259766 1.24140625 -10.77636719 1.0609375 -9.86328125 0.875 C-9.05157471 0.70742187 -8.23986816 0.53984375 -7.40356445 0.3671875 C-4.89938135 -0.0153713 -2.52924498 -0.06298509 0 0 Z " fill="#0D4080" transform="translate(410,240)"/>
<path d="M0 0 C2.31 0 4.62 0 7 0 C7 4.95 7 9.9 7 15 C11.62 15 16.24 15 21 15 C21 17.64 21 20.28 21 23 C16.38 23 11.76 23 7 23 C7.09368215 28.89016999 7.19980963 34.7799361 7.31738281 40.66967773 C7.35562217 42.67254524 7.39048381 44.67548025 7.421875 46.6784668 C7.46763496 49.56062917 7.52561154 52.44232894 7.5859375 55.32421875 C7.59748871 56.21711105 7.60903992 57.11000336 7.62094116 58.029953 C7.7555386 64.25119891 7.7555386 64.25119891 10 70 C12.30371421 71.17778312 12.30371421 71.17778312 15 71 C17.67676547 69.62750037 17.67676547 69.62750037 20 68 C20.66 68 21.32 68 22 68 C22.66 69.65 23.32 71.3 24 73 C19.015625 79.53125 19.015625 79.53125 14.3125 80.625 C7.05726684 81.44634715 0.59060649 81.5028814 -6 78 C-9.61340394 73.66391527 -11.12884177 70.02724575 -11.11352539 64.43676758 C-11.11344986 63.51603958 -11.11337433 62.59531158 -11.11329651 61.64668274 C-11.10813522 60.65597275 -11.10297394 59.66526276 -11.09765625 58.64453125 C-11.0962413 57.62775803 -11.09482635 56.6109848 -11.09336853 55.56340027 C-11.08776707 52.31307036 -11.07521432 49.06280912 -11.0625 45.8125 C-11.05748519 43.61002704 -11.05292225 41.40755299 -11.04882812 39.20507812 C-11.03779716 33.80335893 -11.02053154 28.40169111 -11 23 C-13.97 23 -16.94 23 -20 23 C-20 20.69 -20 18.38 -20 16 C-19.20335937 15.64808594 -18.40671875 15.29617187 -17.5859375 14.93359375 C-9.36774614 11.10443646 -4.94770493 7.4215574 0 0 Z " fill="#134381" transform="translate(240,226)"/>
<path d="M0 0 C0.01213028 1.02357353 0.01213028 1.02357353 0.02450562 2.06782532 C0.1104228 9.1566564 0.20992069 16.24520369 0.31738281 23.33374023 C0.35571579 25.98082725 0.39056094 28.62796713 0.421875 31.27514648 C0.46743145 35.07555056 0.52544197 38.87558932 0.5859375 42.67578125 C0.59748871 43.86335526 0.60903992 45.05092926 0.62094116 46.27449036 C0.64081085 47.37540512 0.66068054 48.47631989 0.68115234 49.6105957 C0.69447601 50.58100296 0.70779968 51.55141022 0.7215271 52.55122375 C0.84005053 55.25530402 0.84005053 55.25530402 3 58 C6.55672179 59.2188121 6.55672179 59.2188121 10 60 C10 61.98 10 63.96 10 66 C-2.87 66 -15.74 66 -29 66 C-29 64.02 -29 62.04 -29 60 C-28.36191406 59.74605469 -27.72382813 59.49210937 -27.06640625 59.23046875 C-26.24011719 58.88628906 -25.41382813 58.54210937 -24.5625 58.1875 C-23.73878906 57.85105469 -22.91507812 57.51460938 -22.06640625 57.16796875 C-19.66627512 56.11596912 -19.66627512 56.11596912 -19 53 C-18.89125891 50.42311026 -18.83597007 47.87411094 -18.83203125 45.296875 C-18.82703865 44.16285248 -18.82703865 44.16285248 -18.82194519 43.00592041 C-18.81688417 41.40548307 -18.81453661 39.80503518 -18.81469727 38.20458984 C-18.81252053 35.77293136 -18.79438347 33.3417339 -18.77539062 30.91015625 C-18.77245446 29.35156404 -18.77047116 27.79296969 -18.76953125 26.234375 C-18.76234573 25.51433289 -18.75516022 24.79429077 -18.74775696 24.0524292 C-18.76893954 19.29824057 -19.52567021 15.46571829 -21 11 C-23.64 10.67 -26.28 10.34 -29 10 C-29 8.02 -29 6.04 -29 4 C-27.83082031 3.79503906 -26.66164063 3.59007812 -25.45703125 3.37890625 C-23.90884878 3.10680145 -22.360672 2.83466433 -20.8125 2.5625 C-20.04357422 2.42779297 -19.27464844 2.29308594 -18.48242188 2.15429688 C-17.73154297 2.02216797 -16.98066406 1.89003906 -16.20703125 1.75390625 C-15.47178223 1.62516113 -14.7365332 1.49641602 -13.97900391 1.36376953 C-12.44082505 1.08103002 -10.91130509 0.75101596 -9.38671875 0.40234375 C-6.24514715 -0.12725015 -3.18057325 -0.02386878 0 0 Z " fill="#11407F" transform="translate(369,240)"/>
<path d="M0 0 C7.11451717 4.04550976 10.94811527 7.84180858 13.1875 15.8125 C14.06779436 22.20205232 13.35786017 28.14389602 10.1875 33.8125 C5.58639795 39.28408082 0.31301572 43.2146865 -6.85546875 44.05078125 C-13.89765036 44.29449974 -19.46467047 42.6948218 -24.86328125 38.046875 C-29.75426128 32.90273865 -31.83376281 28.37691696 -31.80078125 21.296875 C-31.36261591 14.79255399 -29.85297316 10.26106779 -25.625 5.1875 C-17.78729158 -1.43100933 -9.93122866 -3.09333352 0 0 Z M-20.8125 8.8125 C-21.4725 10.4625 -22.1325 12.1125 -22.8125 13.8125 C-18.8525 13.8125 -14.8925 13.8125 -10.8125 13.8125 C-10.8125 15.4625 -10.8125 17.1125 -10.8125 18.8125 C-12.1325 18.8125 -13.4525 18.8125 -14.8125 18.8125 C-14.8125 22.1125 -14.8125 25.4125 -14.8125 28.8125 C-16.4625 28.8125 -18.1125 28.8125 -19.8125 28.8125 C-19.8125 25.5125 -19.8125 22.2125 -19.8125 18.8125 C-21.1325 18.8125 -22.4525 18.8125 -23.8125 18.8125 C-24.1425 17.4925 -24.4725 16.1725 -24.8125 14.8125 C-25.97564671 20.99259275 -26.19120371 25.21652198 -22.8125 30.8125 C-19.75259256 34.38912005 -16.64616129 37.00093713 -11.9375 37.875 C-7.24957055 38.11213262 -2.91753451 37.08680202 1.1875 34.8125 C3.01191836 32.8853664 3.9638318 31.20663344 5.1875 28.8125 C4.1975 28.8125 3.2075 28.8125 2.1875 28.8125 C2.1875 26.5025 2.1875 24.1925 2.1875 21.8125 C0.7268715 24.45988916 0.1875 25.70698334 0.1875 28.8125 C-1.1325 28.8125 -2.4525 28.8125 -3.8125 28.8125 C-4.1425 26.8325 -4.4725 24.8525 -4.8125 22.8125 C-5.1425 22.8125 -5.4725 22.8125 -5.8125 22.8125 C-5.8125 24.7925 -5.8125 26.7725 -5.8125 28.8125 C-7.1325 28.8125 -8.4525 28.8125 -9.8125 28.8125 C-9.8125 23.8625 -9.8125 18.9125 -9.8125 13.8125 C-7.8325 13.8125 -5.8525 13.8125 -3.8125 13.8125 C-3.4825 15.4625 -3.1525 17.1125 -2.8125 18.8125 C-2.1525 18.8125 -1.4925 18.8125 -0.8125 18.8125 C-0.4825 17.4925 -0.1525 16.1725 0.1875 14.8125 C1.8375 14.4825 3.4875 14.1525 5.1875 13.8125 C2.93824284 9.65137425 0.88801216 6.8368322 -3.625 5.125 C-10.05896542 4.20586208 -15.61686291 4.64404634 -20.8125 8.8125 Z M6.1875 16.8125 C6.1875 19.7825 6.1875 22.7525 6.1875 25.8125 C6.5175 25.8125 6.8475 25.8125 7.1875 25.8125 C7.1875 22.8425 7.1875 19.8725 7.1875 16.8125 C6.8575 16.8125 6.5275 16.8125 6.1875 16.8125 Z " fill="#48485C" transform="translate(64.8125,86.1875)"/>
<path d="M0 0 C4.29 0 8.58 0 13 0 C15.90169002 6.27392437 18.66757125 12.49375138 21 19 C23.0345041 16.9654959 23.67053275 15.70645577 24.7265625 13.0859375 C25.190625 11.94511719 25.190625 11.94511719 25.6640625 10.78125 C25.98117188 9.9871875 26.29828125 9.193125 26.625 8.375 C26.94984375 7.57320313 27.2746875 6.77140625 27.609375 5.9453125 C28.41078053 3.96536943 29.20598362 1.9829179 30 0 C34.29 0 38.58 0 43 0 C43 1.65 43 3.3 43 5 C42.34 5 41.68 5 41 5 C41 12.92 41 20.84 41 29 C41.99 29.33 42.98 29.66 44 30 C44 31.32 44 32.64 44 34 C38.39 34 32.78 34 27 34 C27.33 32.68 27.66 31.36 28 30 C28.66 29.67 29.32 29.34 30 29 C30 25.37 30 21.74 30 18 C29.59007813 19.05960937 29.18015625 20.11921875 28.7578125 21.2109375 C28.21381621 22.59906596 27.66953029 23.98708093 27.125 25.375 C26.85558594 26.07367188 26.58617188 26.77234375 26.30859375 27.4921875 C24.2265625 32.7734375 24.2265625 32.7734375 22 35 C19.625 35.1875 19.625 35.1875 17 34 C15.27598872 31.1529532 14.16750391 28.10835444 13 25 C12.42364218 23.64284975 11.84113799 22.28827793 11.25 20.9375 C10.8375 19.968125 10.425 18.99875 10 18 C10 21.63 10 25.26 10 29 C10.99 29.33 11.98 29.66 13 30 C13 31.32 13 32.64 13 34 C8.38 34 3.76 34 -1 34 C-1.33 33.34 -1.66 32.68 -2 32 C-1 30 -1 30 2 29 C2 21.08 2 13.16 2 5 C1.01 4.67 0.02 4.34 -1 4 C-0.67 2.68 -0.34 1.36 0 0 Z " fill="#090909" transform="translate(79,315)"/>
<path d="M0 0 C0 0.99 0 1.98 0 3 C-2.30078125 4.68359375 -2.30078125 4.68359375 -5.3125 6.4375 C-9.09673941 8.64868303 -11.46372007 10.44920809 -14 14 C-14.66 14 -15.32 14 -16 14 C-16.41378906 15.09634766 -16.41378906 15.09634766 -16.8359375 16.21484375 C-19.59469523 22.81549563 -23.00258123 28.50060633 -29.78125 31.35546875 C-35.17422905 32.92209119 -40.56996863 33.63150025 -46 32 C-46 29 -46 29 -44.0234375 26.9921875 C-43.14945312 26.29351562 -42.27546875 25.59484375 -41.375 24.875 C-40.51648438 24.17117187 -39.65796875 23.46734375 -38.7734375 22.7421875 C-35.73115195 20.83111799 -33.56417328 20.24959197 -30 20 C-29.34 20.33 -28.68 20.66 -28 21 C-30.03802135 16.93975679 -30.03802135 16.93975679 -34 15 C-36.22574335 14.77548542 -38.45581519 14.59217122 -40.6875 14.4375 C-41.86699219 14.35371094 -43.04648438 14.26992187 -44.26171875 14.18359375 C-45.61716797 14.09271484 -45.61716797 14.09271484 -47 14 C-43.31510769 5.93076823 -34.93953864 2.25052831 -27 -0.7578125 C-18.11077511 -3.38754153 -8.80926884 -2.34913836 0 0 Z " fill="#B2884A" transform="translate(159,173)"/>
<path d="M0 0 C0.78117187 0.00193359 1.56234375 0.00386719 2.3671875 0.00585938 C3.17414063 0.01810547 3.98109375 0.03035156 4.8125 0.04296875 C5.61945313 0.04361328 6.42640625 0.04425781 7.2578125 0.04492188 C13.27175563 0.08957987 13.27175563 0.08957987 16.01171875 0.8034668 C16.60597656 0.94437744 17.20023437 1.08528809 17.8125 1.23046875 C18.1425 0.90046875 18.4725 0.57046875 18.8125 0.23046875 C23.61296756 -0.39181408 27.55690228 -0.43576677 31.875 1.85546875 C34.56424783 6.53996497 34.46806858 10.81299461 34.57421875 16.1484375 C34.4845325 19.3361659 34.4845325 19.3361659 36.8125 21.23046875 C36.8125 22.22046875 36.8125 23.21046875 36.8125 24.23046875 C22.2925 24.23046875 7.7725 24.23046875 -7.1875 24.23046875 C-7.1875 22.91046875 -7.1875 21.59046875 -7.1875 20.23046875 C-6.5275 20.23046875 -5.8675 20.23046875 -5.1875 20.23046875 C-5.30183363 17.97990153 -5.42936436 15.73000201 -5.5625 13.48046875 C-5.63210938 12.2275 -5.70171875 10.97453125 -5.7734375 9.68359375 C-6.14073304 6.62048754 -6.58461286 4.81072609 -8.1875 2.23046875 C-5.32556263 0.60776634 -3.28403384 -0.01906714 0 0 Z M20.8125 5.23046875 C18.93657797 8.41138001 18.56530319 10.74390166 18.625 14.41796875 C18.63144531 15.29839844 18.63789063 16.17882812 18.64453125 17.0859375 C18.57739536 19.21194187 18.57739536 19.21194187 19.8125 20.23046875 C21.4625 20.23046875 23.1125 20.23046875 24.8125 20.23046875 C24.8125 15.94046875 24.8125 11.65046875 24.8125 7.23046875 C23.4925 6.57046875 22.1725 5.91046875 20.8125 5.23046875 Z M6.8125 5.23046875 C5.19525389 6.34336773 5.19525389 6.34336773 3.8125 8.23046875 C3.44930691 11.20239637 3.44930691 11.20239637 3.625 14.41796875 C3.65207031 15.50464844 3.67914063 16.59132813 3.70703125 17.7109375 C3.74183594 18.54238281 3.77664063 19.37382812 3.8125 20.23046875 C6.8125 21.56380208 6.8125 21.56380208 9.8125 20.23046875 C10.84883049 17.12147729 10.84701033 15.38767728 10.5625 12.16796875 C10.49546875 11.29011719 10.4284375 10.41226562 10.359375 9.5078125 C9.99697339 6.86268083 9.99697339 6.86268083 6.8125 5.23046875 Z " fill="#090909" transform="translate(397.1875,324.76953125)"/>
<path d="M0 0 C1.44962183 2.89924366 1.22126481 5.52300355 1.31640625 8.7578125 C1.33718735 9.42086395 1.35796844 10.08391541 1.37937927 10.76705933 C1.44479231 12.88626694 1.50372105 15.005599 1.5625 17.125 C1.60569309 18.56121081 1.64930764 19.99740902 1.69335938 21.43359375 C1.80046499 24.95559594 1.90175575 28.47773825 2 32 C2.66 32 3.32 32 4 32 C4 33.32 4 34.64 4 36 C2.91460937 35.98839844 1.82921875 35.97679687 0.7109375 35.96484375 C-0.73437327 35.95545862 -2.17968591 35.94635919 -3.625 35.9375 C-4.33785156 35.92912109 -5.05070312 35.92074219 -5.78515625 35.91210938 C-9.9850848 35.89284365 -13.85123314 36.26750259 -18 37 C-19.66666667 36.66666667 -21.33333333 36.33333333 -23 36 C-23.99 36.20625 -24.98 36.4125 -26 36.625 C-29.72504369 37.09063046 -31.04382526 36.19601552 -34 34 C-34.33 33.67 -34.66 33.34 -35 33 C-34.64476021 26.60568384 -34.64476021 26.60568384 -31.9375 24.0625 C-31.298125 23.711875 -30.65875 23.36125 -30 23 C-30.680625 22.443125 -31.36125 21.88625 -32.0625 21.3125 C-34 19 -34 19 -34.1875 16.4375 C-32.73791939 13.46204506 -31.12317904 12.55526703 -28.04296875 11.4375 C-24.38567075 10.65429278 -21.64857626 11.14866554 -18 12 C-15.35634921 13.87613927 -15.04758719 14.85723843 -14 18 C-13.77082972 21.09379878 -13.61930103 24.18622757 -13.4765625 27.28515625 C-13.24066406 28.62900391 -13.24066406 28.62900391 -13 30 C-10.32357511 32.18490007 -10.32357511 32.18490007 -8 32 C-8 23.75 -8 15.5 -8 7 C-8.66 6.67 -9.32 6.34 -10 6 C-10 4.35 -10 2.7 -10 1 C-6.59437148 0.22157062 -3.49234244 -0.09978121 0 0 Z M-25 17 C-26.6446674 19.46326712 -26.6446674 19.46326712 -28 22 C-26.35 21.67 -24.7 21.34 -23 21 C-23 19.68 -23 18.36 -23 17 C-23.66 17 -24.32 17 -25 17 Z M-24 27 C-24.99 27.495 -24.99 27.495 -26 28 C-26 28.66 -26 29.32 -26 30 C-25.01 29.67 -24.02 29.34 -23 29 C-23.33 28.34 -23.66 27.68 -24 27 Z " fill="#070707" transform="translate(254,313)"/>
<path d="M0 0 C1.29035156 0.27714844 2.58070312 0.55429688 3.91015625 0.83984375 C5.62757806 1.20585168 7.34502745 1.57173024 9.0625 1.9375 C9.91005859 2.11990234 10.75761719 2.30230469 11.63085938 2.49023438 C12.46552734 2.66748047 13.30019531 2.84472656 14.16015625 3.02734375 C14.98563965 3.20370361 15.81112305 3.38006348 16.66162109 3.56176758 C19.22844744 4.08349324 19.22844744 4.08349324 22.79296875 4.3203125 C26.92239214 5.19548871 28.43088581 6.84799907 31.25 9.9375 C33.79350759 12.68243444 35.87964958 14.91976639 39 17 C39 17.99 39 18.98 39 20 C38.33613281 20.12117188 37.67226563 20.24234375 36.98828125 20.3671875 C30.26281029 21.48851907 30.26281029 21.48851907 24 24 C22.74172877 25.84982472 22.74172877 25.84982472 22 28 C21.34118209 29.33722892 20.67554793 30.6711444 20 32 C11.01304029 29.49132488 4.28634943 26.92952414 -1 19 C-2.317125 13.13280682 -2.77266372 5.54532745 0 0 Z " fill="#B38644" transform="translate(20,191)"/>
<path d="M0 0 C1.40912993 2.81825985 1.18219387 5.24991604 1.24609375 8.3984375 C1.27896484 9.68234375 1.31183594 10.96625 1.34570312 12.2890625 C1.39307021 14.33198298 1.43749763 16.37487673 1.47680664 18.41796875 C1.5166355 20.39080922 1.56871649 22.36339029 1.62109375 24.3359375 C1.6461499 25.51720215 1.67120605 26.6984668 1.69702148 27.91552734 C1.98335351 30.83053046 2.48022127 32.53506256 4 35 C1.6199747 37.3800253 -3.99915959 36.42342878 -7.1875 36.5 C-8.13431641 36.55414063 -9.08113281 36.60828125 -10.05664062 36.6640625 C-16.89141571 36.79761009 -16.89141571 36.79761009 -19.9921875 34.56665039 C-22.95731477 31.29823145 -24.31190189 28.88835586 -24.625 24.4375 C-24.29518787 20.03750632 -22.99756347 17.31309647 -20 14 C-16.51196358 11.64936676 -14.83576175 10.92261465 -10.625 11.3125 C-9.75875 11.539375 -8.8925 11.76625 -8 12 C-8 10.02 -8 8.04 -8 6 C-8.99 6 -9.98 6 -11 6 C-11.33 4.68 -11.66 3.36 -12 2 C-7.82262526 0.40861915 -4.46839215 -0.21278058 0 0 Z M-13 18 C-15.32845886 21.63821698 -15.23553948 24.76028942 -15 29 C-14.67 29.66 -14.34 30.32 -14 31 C-12.33388095 31.042721 -10.66617115 31.04063832 -9 31 C-7.75261777 29.97378893 -7.75261777 29.97378893 -7.8671875 27.78515625 C-7.86976563 26.88667969 -7.87234375 25.98820312 -7.875 25.0625 C-7.87113281 23.71865234 -7.87113281 23.71865234 -7.8671875 22.34765625 C-7.84578587 19.97844445 -7.84578587 19.97844445 -9 18 C-10.32 18 -11.64 18 -13 18 Z " fill="#080808" transform="translate(174,313)"/>
<path d="M0 0 C1.28132813 0.00902344 2.56265625 0.01804687 3.8828125 0.02734375 C4.87023437 0.03894531 5.85765625 0.05054688 6.875 0.0625 C8.3918015 4.24238811 9.1493328 6.72976849 7.875 11.0625 C3.875 11.0625 3.875 11.0625 1.3125 8.5625 C0.508125 7.7375 -0.29625 6.9125 -1.125 6.0625 C-2.115 6.0625 -3.105 6.0625 -4.125 6.0625 C-4.455 7.0525 -4.785 8.0425 -5.125 9.0625 C-4.22136719 9.50980469 -3.31773437 9.95710938 -2.38671875 10.41796875 C-1.19494637 11.02793099 -0.00356016 11.63864818 1.1875 12.25 C2.35925781 12.84167969 3.53101563 13.43335938 4.73828125 14.04296875 C8.01923664 16.15536468 9.28489586 17.54986577 10.875 21.0625 C11.49884347 24.49363908 11.58645831 26.7107292 9.9375 29.84375 C7.56853512 32.57320953 5.41691832 33.87626411 1.77685547 34.31591797 C-3.53650081 34.57923667 -8.81754348 34.36578323 -14.125 34.0625 C-14.125 29.7725 -14.125 25.4825 -14.125 21.0625 C-12.805 21.3925 -11.485 21.7225 -10.125 22.0625 C-9.526875 23.073125 -8.92875 24.08375 -8.3125 25.125 C-7.590625 26.094375 -6.86875 27.06375 -6.125 28.0625 C-2.45642278 28.56375283 -2.45642278 28.56375283 0.875 28.0625 C0.875 26.7425 0.875 25.4225 0.875 24.0625 C-0.12080078 23.62550781 -0.12080078 23.62550781 -1.13671875 23.1796875 C-6.797076 20.55195961 -10.82663126 18.44983561 -14.125 13.0625 C-14.78526381 9.8932337 -14.81614546 8.15257869 -13.0625 5.38671875 C-8.83723316 0.11771039 -6.55644547 -0.05960405 0 0 Z " fill="#0D0D0D" transform="translate(287.125,314.9375)"/>
<path d="M0 0 C2.43868168 -0.1079859 4.87259133 -0.18726589 7.3125 -0.25 C8.00279297 -0.28351563 8.69308594 -0.31703125 9.40429688 -0.3515625 C11.42578125 -0.390625 11.42578125 -0.390625 15 0 C16.75 1.96875 16.75 1.96875 18 4 C21.60465748 4.81314911 21.60465748 4.81314911 25 5 C25.33 6.98 25.66 8.96 26 11 C26.165 10.05125 26.33 9.1025 26.5 8.125 C28 5 28 5 29.7734375 4.19140625 C31.84376724 3.69498889 33.89715539 3.3293134 36 3 C37.33627148 2.67864752 38.67061331 2.34874046 40 2 C40 2.99 40 3.98 40 5 C41.32 5 42.64 5 44 5 C44 6.32 44 7.64 44 9 C42.68 9 41.36 9 40 9 C40 11.31 40 13.62 40 16 C40.721875 15.855625 41.44375 15.71125 42.1875 15.5625 C44.0625 15.1875 45.9375 14.8125 47.8125 14.4375 C48.534375 14.293125 49.25625 14.14875 50 14 C50.495 16.475 50.495 16.475 51 19 C48.23735711 19.59732819 45.83967231 20 43 20 C41.989375 20.020625 40.97875 20.04125 39.9375 20.0625 C37 20 37 20 35 19 C35 15.7 35 12.4 35 9 C31.30209954 10.23263349 31.0645154 11.20052451 29.3125 14.5625 C28.87550781 15.38878906 28.43851562 16.21507812 27.98828125 17.06640625 C27.66214844 17.70449219 27.33601563 18.34257812 27 19 C25.68 19 24.36 19 23 19 C22.32845067 17.71086513 21.66291141 16.41859796 21 15.125 C20.62875 14.40570313 20.2575 13.68640625 19.875 12.9453125 C19 11 19 11 19 9 C18.29875 9.495 17.5975 9.99 16.875 10.5 C13.62880281 12.1936681 11.60659844 12.25162315 8 12 C8.66 14.31 9.32 16.62 10 19 C9 20 9 20 7.15234375 20.09765625 C5.1015625 20.06510417 3.05078125 20.03255208 1 20 C1 17.70830337 1.00713488 15.41652531 1.03515625 13.125 C1.04417969 12.09375 1.05320312 11.0625 1.0625 10 C1.07410156 8.96875 1.08570313 7.9375 1.09765625 6.875 C1.0131512 4.38717144 0.72264748 2.36709726 0 0 Z M8 3 C8 4.65 8 6.3 8 8 C9.32 7.67 10.64 7.34 12 7 C12 6.01 12 5.02 12 4 C10.68 3.67 9.36 3.34 8 3 Z " fill="#0F0F0F" transform="translate(331,358)"/>
<path d="M0 0 C4.29 0 8.58 0 13 0 C12.96744792 2.5390625 12.93489583 5.078125 12.90234375 7.6171875 C12.83750743 10.0168585 12.83750743 10.0168585 14 12 C15.75528019 9.8552976 15.75528019 9.8552976 17 7 C16.30059064 3.73185596 16.30059064 3.73185596 15 1 C16 0 16 0 18.50390625 -0.09765625 C20.01791016 -0.08025391 20.01791016 -0.08025391 21.5625 -0.0625 C22.57441406 -0.05347656 23.58632813 -0.04445313 24.62890625 -0.03515625 C25.80259766 -0.01775391 25.80259766 -0.01775391 27 0 C27.1875 2.3125 27.1875 2.3125 27 5 C26.01897653 6.01862307 25.01679281 7.01707966 24 8 C22.64552762 10.54742818 21.36550804 13.08626239 20.125 15.6875 C12.66586053 30.95625421 12.66586053 30.95625421 8 35 C5.4375 35.3125 5.4375 35.3125 3 35 C2.34 34.34 1.68 33.68 1 33 C1.375 30.375 1.375 30.375 2 28 C3.98 27.34 5.96 26.68 8 26 C7.39681814 21.4241376 6.16552149 17.52328391 4.4375 13.25 C2 7.20113314 2 7.20113314 2 5 C1.01 4.67 0.02 4.34 -1 4 C-0.67 2.68 -0.34 1.36 0 0 Z " fill="#0B0B0B" transform="translate(300,325)"/>
<path d="M0 0 C0.92941406 -0.00515625 1.85882813 -0.0103125 2.81640625 -0.015625 C5.52462785 0.25882965 7.14213414 0.81925626 9.4375 2.25 C11.54078813 4.85407102 11.55775094 7.03182912 11.3125 10.25 C10.85865797 12.98325086 10.37661038 14.3474234 8.875 16.75 C5.44840803 18.85867198 2.29843007 19.04512223 -1.5625 18.25 C-4.5625 16.25 -4.5625 16.25 -6.5625 14.25 C-9.78696551 15.18044278 -11.22553207 15.66103027 -12.92578125 18.6328125 C-13.39564453 19.99019531 -13.39564453 19.99019531 -13.875 21.375 C-14.20113281 22.28507812 -14.52726562 23.19515625 -14.86328125 24.1328125 C-15.09402344 24.83148438 -15.32476562 25.53015625 -15.5625 26.25 C-15.8925 26.25 -16.2225 26.25 -16.5625 26.25 C-16.8125 20.625 -16.8125 20.625 -14.5625 17.25 C-14.17750109 15.59450469 -13.83456865 13.9277567 -13.5625 12.25 C-14.8825 12.58 -16.2025 12.91 -17.5625 13.25 C-17.29525011 8.70675182 -15.40061745 6.64643819 -12.328125 3.58203125 C-8.44885579 0.65541443 -4.78443212 -0.02661715 0 0 Z " fill="#12417E" transform="translate(431.5625,239.75)"/>
<path d="M0 0 C3.08161282 2.76554997 3.93702206 4.16554232 4.25 8.3125 C4.1675 9.199375 4.085 10.08625 4 11 C-0.1205746 12.99785435 -3.45194365 13.17835515 -8 13 C-7.67 14.65 -7.34 16.3 -7 18 C-5.3603125 17.7525 -5.3603125 17.7525 -3.6875 17.5 C0 17 0 17 3 17 C3.33 17.99 3.66 18.98 4 20 C0.61395591 23.53995519 -1.40671499 24.18637021 -6.3125 24.3125 C-10.10286521 24.27777152 -11.71183764 24.16466421 -15.0625 22.25 C-17.37905909 19.55980235 -18.89710083 17.45114208 -19.15234375 13.8515625 C-18.58680354 7.99050943 -17.39267839 5.00221809 -13 1 C-8.4394473 -1.28027635 -4.90128695 -1.3614686 0 0 Z " fill="#0D0D0D" transform="translate(383,325)"/>
<path d="M0 0 C2.12367771 3.10383665 2.41452064 5.65653126 2.625 9.375 C0.74675109 11.25324891 -2.41435276 10.76602397 -4.9375 10.9375 C-6.13503906 11.02128906 -7.33257812 11.10507812 -8.56640625 11.19140625 C-9.49324219 11.25199219 -10.42007813 11.31257813 -11.375 11.375 C-11.045 13.025 -10.715 14.675 -10.375 16.375 C-6.15621808 16.57122241 -3.20489106 16.17730168 0.625 14.375 C0.955 16.025 1.285 17.675 1.625 19.375 C-1.5691415 22.23014063 -3.62078714 22.76346809 -7.875 22.6875 C-8.8134375 22.68363281 -9.751875 22.67976563 -10.71875 22.67578125 C-14.55703548 22.24115186 -16.63009291 21.25292621 -19.125 18.3125 C-20.87934845 14.18978115 -21.41079231 10.77347014 -20.375 6.375 C-18.11635881 2.70316528 -15.51515841 -0.84939995 -11.359375 -2.35546875 C-7.1063616 -2.93314183 -3.55022895 -2.42910402 0 0 Z M-8.375 3.375 C-8.705 4.035 -9.035 4.695 -9.375 5.375 C-8.385 5.045 -7.395 4.715 -6.375 4.375 C-7.035 4.045 -7.695 3.715 -8.375 3.375 Z " fill="#0A0A0A" transform="translate(145.375,326.625)"/>
<path d="M0 0 C0 5.61 0 11.22 0 17 C0.66 17 1.32 17 2 17 C2 17.99 2 18.98 2 20 C-7.55294118 21.31764706 -7.55294118 21.31764706 -12 21 C-12.66 20.34 -13.32 19.68 -14 19 C-14.66 19.66 -15.32 20.32 -16 21 C-19.5 21.3125 -19.5 21.3125 -23 21 C-25.20253948 17.69619078 -25.48335581 15.89733727 -25.875 12 C-25.99617188 10.948125 -26.11734375 9.89625 -26.2421875 8.8125 C-26 6 -26 6 -24.1953125 4.125 C-22 3 -22 3 -19 3 C-19 3.99 -19 4.98 -19 6 C-17.68 6 -16.36 6 -15 6 C-15.33 7.32 -15.66 8.64 -16 10 C-16.99 10 -17.98 10 -19 10 C-19 12.31 -19 14.62 -19 17 C-17.68 17 -16.36 17 -15 17 C-15.103125 15.9275 -15.20625 14.855 -15.3125 13.75 C-15 10 -15 10 -12.6875 7.625 C-10 6 -10 6 -7 5 C-6.6278958 3.67696283 -6.29369827 2.34262065 -6 1 C-4 0 -4 0 0 0 Z M-8 10 C-9.29633621 11.06645115 -9.29633621 11.06645115 -9.0625 13.5625 C-9.041875 14.366875 -9.02125 15.17125 -9 16 C-8.01 16.33 -7.02 16.66 -6 17 C-4.99782936 13.41672247 -4.99782936 13.41672247 -6 10 C-6.66 10 -7.32 10 -8 10 Z " fill="#151515" transform="translate(433,357)"/>
<path d="M0 0 C1 1 1 1 1.0625 4.3125 C1.041875 5.529375 1.02125 6.74625 1 8 C0.63019987 12.04622502 0.63019987 12.04622502 3 15 C2.80887657 18.05797482 2.50383725 20.23098526 0.8125 22.8125 C-3.79939567 25.83408682 -8.83445282 25.01285239 -14 24 C-15.88059033 22.11940967 -15.12361218 19.50109962 -15.1328125 17.0078125 C-15 15 -15 15 -14 12 C-14.226875 10.88625 -14.45375 9.7725 -14.6875 8.625 C-15 5 -15 5 -13.75 2.0625 C-9.52594855 -1.10553859 -5.1156317 -0.59189127 0 0 Z M-11 15 C-10.20882096 16.99983534 -10.20882096 16.99983534 -9 19 C-8.01 19.33 -7.02 19.66 -6 20 C-6 19.01 -6 18.02 -6 17 C-8.475 16.01 -8.475 16.01 -11 15 Z " fill="#080808" transform="translate(343,325)"/>
<path d="M0 0 C2.28226374 1.4574101 3.34665441 2.79553922 5 5 C4.34 6.65 3.68 8.3 3 10 C-0.82097239 9.46930939 -3.06171403 8.50298434 -6 6 C-7.62112003 10.10048007 -8.33963162 12.73753575 -7 17 C-6.67 17.33 -6.34 17.66 -6 18 C-4.47480724 17.91062197 -2.95318071 17.75462854 -1.4375 17.5625 C-0.19806641 17.40974609 -0.19806641 17.40974609 1.06640625 17.25390625 C2.02353516 17.12822266 2.02353516 17.12822266 3 17 C3.33 18.32 3.66 19.64 4 21 C-0.00555108 24.53541598 -3.11505417 24.55438372 -8.296875 24.4296875 C-12.50628945 23.76056093 -14.17179955 22.12590576 -17 19 C-18.60725691 15.78548618 -18.47397924 12.48666924 -18 9 C-13.79652414 1.04342069 -8.82713833 -1.59715588 0 0 Z " fill="#101010" transform="translate(213,325)"/>
<path d="M0 0 C0.99 0.495 0.99 0.495 2 1 C2 1.66 2 2.32 2 3 C1.34 3 0.68 3 0 3 C0 2.01 0 1.02 0 0 Z M-1 3 C1.97 3.495 1.97 3.495 5 4 C4.67 5.32 4.34 6.64 4 8 C13.57 7.67 23.14 7.34 33 7 C33.495 7.99 33.495 7.99 34 9 C34.66 9.66 35.32 10.32 36 11 C31.7951831 14.03779455 28.6490393 14.40938169 23.51171875 14.51171875 C22.80852005 14.52966995 22.10532135 14.54762115 21.3808136 14.56611633 C19.14976883 14.6200048 16.9189353 14.65404412 14.6875 14.6875 C13.16859053 14.72069224 11.64970886 14.75518367 10.13085938 14.79101562 C6.42077584 14.87571695 2.7106183 14.94263074 -1 15 C-1 15.66 -1 16.32 -1 17 C-2 18 -3 19 -4 20 C-4.33 20.99 -4.66 21.98 -5 23 C-4.67 23.66 -4.34 24.32 -4 25 C-3.960008 26.99960012 -3.95653201 29.00047242 -4 31 C-4.66 31 -5.32 31 -6 31 C-6.33 30.01 -6.66 29.02 -7 28 C-9.01508358 27.26676204 -9.01508358 27.26676204 -11 27 C-11 25.35 -11 23.7 -11 22 C-10.34 22 -9.68 22 -9 22 C-8.87625 21.38125 -8.7525 20.7625 -8.625 20.125 C-8 18 -8 18 -6 16 C-5.67 15.34 -5.34 14.68 -5 14 C-4 12 -4 12 -2 10 C-2.165 9.360625 -2.33 8.72125 -2.5 8.0625 C-2.665 7.381875 -2.83 6.70125 -3 6 C-2.34 5.01 -1.68 4.02 -1 3 Z " fill="#093A7C" transform="translate(99,262)"/>
<path d="M0 0 C3.62364079 0.8665228 5.09430301 2.48714036 7.15625 5.515625 C8.51477611 9.91085652 8.56996666 11.70351451 6.46875 15.828125 C3.08287116 19.76306527 3.08287116 19.76306527 0.15625 20.515625 C-3.84397687 20.37275975 -6.08707729 20.13291063 -9.21875 17.578125 C-12.16723955 13.83581134 -12.31967229 11.2748479 -11.84375 6.515625 C-8.76886857 1.06019021 -6.0491204 -0.44360216 0 0 Z " fill="#0B3C7E" transform="translate(361.84375,204.484375)"/>
<path d="M0 0 C0.33 0.66 0.66 1.32 1 2 C-0.32 2.99 -1.64 3.98 -3 5 C3.93 5.495 3.93 5.495 11 6 C11 6.66 11 7.32 11 8 C10.38511719 7.96519531 9.77023437 7.93039063 9.13671875 7.89453125 C8.32847656 7.86746094 7.52023437 7.84039062 6.6875 7.8125 C5.88699219 7.77769531 5.08648437 7.74289063 4.26171875 7.70703125 C1.95819038 7.81587045 1.95819038 7.81587045 0.33203125 9.2578125 C-1.54675641 11.71511249 -2.68100098 14.34873968 -3.9375 17.16015625 C-5 19 -5 19 -8 21 C-11.55020021 21.32274547 -14.02732752 21.54018061 -17.1875 19.78515625 C-19 18 -19 18 -19.56640625 15.6953125 C-19.55979661 11.34617113 -19.50404218 8.76419298 -17.0625 5.0625 C-11.94354574 1.61504101 -6.26641108 -0.60642688 0 0 Z " fill="#1B4680" transform="translate(292,240)"/>
<path d="M0 0 C1.32 0.33 2.64 0.66 4 1 C4.33 2.32 4.66 3.64 5 5 C5.99 5 6.98 5 8 5 C8.33 5.99 8.66 6.98 9 8 C8.51917969 8.35707031 8.03835938 8.71414063 7.54296875 9.08203125 C5.31575162 11.85054672 5.48605989 14.18159023 5.3125 17.6875 C5.24675781 18.86699219 5.18101562 20.04648437 5.11328125 21.26171875 C5.07589844 22.16535156 5.03851563 23.06898438 5 24 C6.32 23.67 7.64 23.34 9 23 C9.042721 24.66611905 9.04063832 26.33382885 9 28 C7.33315985 29.66684015 5.34356931 29.21072764 3.0625 29.25 C2.16660156 29.27578125 1.27070313 29.3015625 0.34765625 29.328125 C-0.81443359 29.16570312 -0.81443359 29.16570312 -2 29 C-4.71381705 24.92927443 -4.415126 21.09106076 -4.56640625 16.36132812 C-4.62695498 12.22935966 -4.62695498 12.22935966 -7 9 C-6.9375 7.0625 -6.9375 7.0625 -6 5 C-3.5 3.375 -3.5 3.375 -1 2 C-0.67 1.34 -0.34 0.68 0 0 Z " fill="#080808" transform="translate(354,320)"/>
<path d="M0 0 C1.1482685 2.296537 1.11561175 3.58313167 1.09765625 6.1328125 C1.09443359 6.93847656 1.09121094 7.74414062 1.08789062 8.57421875 C1.07951172 9.41597656 1.07113281 10.25773437 1.0625 11.125 C1.05798828 11.97449219 1.05347656 12.82398438 1.04882812 13.69921875 C1.03702874 15.79950909 1.01909306 17.8997633 1 20 C1.99 20.33 2.98 20.66 4 21 C4 22.32 4 23.64 4 25 C-0.62 25 -5.24 25 -10 25 C-10.33 23.68 -10.66 22.36 -11 21 C-10.34 20.67 -9.68 20.34 -9 20 C-8.94581674 17.91695462 -8.90712449 15.83350232 -8.875 13.75 C-8.85179687 12.58984375 -8.82859375 11.4296875 -8.8046875 10.234375 C-8.9896051 7.17213954 -9.39176977 5.55797249 -11 3 C-7.4144509 0.60963393 -4.2914923 0 0 0 Z " fill="#070707" transform="translate(190,324)"/>
<path d="M0 0 C0.763125 0.78375 1.52625 1.5675 2.3125 2.375 C5.98924886 5.96624308 8.5933515 7.49308417 13.73828125 8.03515625 C18.43334052 7.96217605 23.26508116 6.5848926 26.76171875 3.390625 C27.17035156 2.93171875 27.57898438 2.4728125 28 2 C28 2.99 28 3.98 28 5 C29.32 4.34 30.64 3.68 32 3 C32 2.34 32 1.68 32 1 C32.99 1.33 33.98 1.66 35 2 C32.15921866 8.03666035 29.05694978 11.13714483 23 14 C16.05551929 16.14201075 9.58991836 15.51617524 3.0859375 12.35546875 C-0.30634002 10.15112362 -2.66133061 7.26496589 -5 4 C-2 2 -2 2 0 2 C0 1.34 0 0.68 0 0 Z " fill="#464657" transform="translate(41,115)"/>
<path d="M0 0 C10.06902003 3.48543001 21.39162613 12.76267833 27 22 C27 22.99 27 23.98 27 25 C23.06013576 24.41631641 21.06090433 22.46203174 18 20 C6.96480551 12.47788241 -4.99285298 8.61846004 -18 6 C-18 5.67 -18 5.34 -18 5 C-11.28299653 4.68014269 -6.24273068 5.5206176 0 8 C-0.185625 7.360625 -0.37125 6.72125 -0.5625 6.0625 C-0.706875 5.381875 -0.85125 4.70125 -1 4 C-0.67 3.67 -0.34 3.34 0 3 C0 2.01 0 1.02 0 0 Z " fill="#B28A4E" transform="translate(76,159)"/>
<path d="M0 0 C1.98 0 3.96 0 6 0 C6.33 1.65 6.66 3.3 7 5 C7.66 5 8.32 5 9 5 C9.33 3.35 9.66 1.7 10 0 C12.375 -0.1875 12.375 -0.1875 15 0 C17.15942819 3.23914229 17.27232978 4.24859733 17.25 8 C17.25515625 8.86625 17.2603125 9.7325 17.265625 10.625 C17 13 17 13 15 16 C14.01 15.67 13.02 15.34 12 15 C11.67 14.01 11.34 13.02 11 12 C10.67 12.99 10.34 13.98 10 15 C8.68 15 7.36 15 6 15 C5.67 14.34 5.34 13.68 5 13 C4.67 13.66 4.34 14.32 4 15 C2.68 15 1.36 15 0 15 C0 10.05 0 5.1 0 0 Z " fill="#4C7EB1" transform="translate(55,100)"/>
<path d="M0 0 C3.0625 0.125 3.0625 0.125 5.0625 1.125 C4.4025 6.405 3.7425 11.685 3.0625 17.125 C4.7125 17.125 6.3625 17.125 8.0625 17.125 C8.3925 15.805 8.7225 14.485 9.0625 13.125 C10.0525 13.125 11.0425 13.125 12.0625 13.125 C12.10491723 15.45794775 12.10342937 17.79202567 12.0625 20.125 C11.0625 21.125 11.0625 21.125 7.68359375 21.22265625 C6.28902923 21.21598369 4.89448257 21.20402532 3.5 21.1875 C2.78908203 21.18298828 2.07816406 21.17847656 1.34570312 21.17382812 C-0.41540013 21.16200864 -2.17646036 21.14407263 -3.9375 21.125 C-3.96638146 17.81251813 -3.98425799 14.50006833 -4 11.1875 C-4.00837891 10.24197266 -4.01675781 9.29644531 -4.02539062 8.32226562 C-4.02861328 7.42314453 -4.03183594 6.52402344 -4.03515625 5.59765625 C-4.04039307 4.76500244 -4.04562988 3.93234863 -4.05102539 3.07446289 C-3.86423672 -0.13308017 -3.26112441 0.13877125 0 0 Z " fill="#131313" transform="translate(394.9375,356.875)"/>
<path d="M0 0 C0 0.99 0 1.98 0 3 C1.32 3 2.64 3 4 3 C4 4.32 4 5.64 4 7 C2.68 7 1.36 7 0 7 C0 9.31 0 11.62 0 14 C0.721875 13.855625 1.44375 13.71125 2.1875 13.5625 C4.0625 13.1875 5.9375 12.8125 7.8125 12.4375 C8.534375 12.293125 9.25625 12.14875 10 12 C10.33 13.65 10.66 15.3 11 17 C8.23735711 17.59732819 5.83967231 18 3 18 C1.989375 18.020625 0.97875 18.04125 -0.0625 18.0625 C-3 18 -3 18 -5 17 C-5.37890625 14.78515625 -5.37890625 14.78515625 -5.5625 12.0625 C-5.76801323 8.39324879 -5.76801323 8.39324879 -7 5 C-9.52733235 4.34444881 -9.52733235 4.34444881 -12 4 C-12 3.67 -12 3.34 -12 3 C-8.97265625 2.26757812 -8.97265625 2.26757812 -5.9453125 1.53515625 C-0.3649635 0 -0.3649635 0 0 0 Z " fill="#111111" transform="translate(371,360)"/>
<path d="M0 0 C1.65 0 3.3 0 5 0 C5 4.62 5 9.24 5 14 C5.66 13.67 6.32 13.34 7 13 C9.2072923 12.92907158 11.41667452 12.91584975 13.625 12.9375 C14.81351563 12.94652344 16.00203125 12.95554688 17.2265625 12.96484375 C18.14179688 12.97644531 19.05703125 12.98804688 20 13 C20 15.31 20 17.62 20 20 C15.71 20 11.42 20 7 20 C7 19.67 7 19.34 7 19 C10.96 19 14.92 19 19 19 C19 18.01 19 17.02 19 16 C14.05 16 9.1 16 4 16 C3.67 16.99 3.34 17.98 3 19 C1 17 1 17 0.5625 14.1875 C-0.03066252 10.8262457 -1.10416006 8.802546 -3 6 C-2.34 5.34 -1.68 4.68 -1 4 C-0.3574765 1.93125966 -0.3574765 1.93125966 0 0 Z " fill="#093B7C" transform="translate(240,228)"/>
<path d="M0 0 C2.31 0 4.62 0 7 0 C9.24281523 5.20333134 10.55577239 8.34264585 9 14 C8.01 14 7.02 14 6 14 C6 14.99 6 15.98 6 17 C3.69 17 1.38 17 -1 17 C-0.67 16.01 -0.34 15.02 0 14 C-0.66 13.67 -1.32 13.34 -2 13 C-0.35 11.35 1.3 9.7 3 8 C2.34 8 1.68 8 1 8 C-0.35439668 5.29120665 -0.06501451 2.99066732 0 0 Z " fill="#0A3B7C" transform="translate(358,206)"/>
<path d="M0 0 C2.19050021 0.09017996 4.378466 0.24666208 6.5625 0.4375 C7.76003906 0.53933594 8.95757812 0.64117187 10.19140625 0.74609375 C11.11824219 0.82988281 12.04507813 0.91367188 13 1 C13 2.65 13 4.3 13 6 C11.68 6 10.36 6 9 6 C9 9.3 9 12.6 9 16 C7.35 16 5.7 16 4 16 C4 12.7 4 9.4 4 6 C2.68 6 1.36 6 0 6 C-0.38218767 4.34385343 -0.71395102 2.67542976 -1 1 C-0.67 0.67 -0.34 0.34 0 0 Z " fill="#7197C0" transform="translate(41,99)"/>
<path d="M0 0 C0.66 0 1.32 0 2 0 C2.66 1.65 3.32 3.3 4 5 C-0.984375 11.53125 -0.984375 11.53125 -5.6875 12.625 C-11.22563763 13.25195898 -16.54574243 13.36356439 -22 12 C-22 11.67 -22 11.34 -22 11 C-17.38 11 -12.76 11 -8 11 C-8 8.69 -8 6.38 -8 4 C-6.865625 3.525625 -5.73125 3.05125 -4.5625 2.5625 C-1.24259834 1.36377917 -1.24259834 1.36377917 0 0 Z " fill="#295082" transform="translate(260,294)"/>
<path d="M0 0 C4 1 4 1 5.75 2.5 C8.0873465 7.17469301 7.59157248 12.18830929 6 17.0625 C5.67 17.701875 5.34 18.34125 5 19 C4.01 18.67 3.02 18.34 2 18 C2 18.66 2 19.32 2 20 C-0.5 21.625 -0.5 21.625 -3 23 C-2.67 21.35 -2.34 19.7 -2 18 C-1.34 18 -0.68 18 0 18 C0 12.06 0 6.12 0 0 Z " fill="#393B52" transform="translate(71,98)"/>
<path d="M0 0 C4.8555968 1.27170392 8.73210658 3.14462013 12 7 C13.58447312 9.91464808 14.84855806 12.89110677 16 16 C15.34 16.66 14.68 17.32 14 18 C13.34 16.35 12.68 14.7 12 13 C10.02 13.99 10.02 13.99 8 15 C7.484375 14.071875 6.96875 13.14375 6.4375 12.1875 C3.96268495 8.40826979 1.192303 7.45118181 -3 6 C-2.01 5.67 -1.02 5.34 0 5 C-0.2784375 4.0409375 -0.2784375 4.0409375 -0.5625 3.0625 C-0.706875 2.381875 -0.85125 1.70125 -1 1 C-0.67 0.67 -0.34 0.34 0 0 Z " fill="#47495B" transform="translate(62,86)"/>
<path d="M0 0 C1.65 0 3.3 0 5 0 C5.66 5.28 6.32 10.56 7 16 C6.34 16 5.68 16 5 16 C4.67 16.66 4.34 17.32 4 18 C3.01 17.67 2.02 17.34 1 17 C-1.1381926 11.01306073 -1.06442186 6.21392221 0 0 Z " fill="#34384F" transform="translate(34,101)"/>
<path d="M0 0 C0.28875 0.61875 0.5775 1.2375 0.875 1.875 C2.70629991 5.33412205 3.81061477 5.94122527 7.625 7.125 C8.73875 7.41375 9.8525 7.7025 11 8 C11 9.98 11 11.96 11 14 C-6.82 14 -24.64 14 -43 14 C-43 13.67 -43 13.34 -43 13 C-25.84 13 -8.68 13 9 13 C8.505 11.515 8.505 11.515 8 10 C6.865625 9.731875 5.73125 9.46375 4.5625 9.1875 C3.386875 8.795625 2.21125 8.40375 1 8 C-0.5 5 -0.5 5 -1 2 C-0.67 1.34 -0.34 0.68 0 0 Z " fill="#1B3C6E" transform="translate(203,292)"/>
<path d="M0 0 C0.66 0.33 1.32 0.66 2 1 C1.67 1.66 1.34 2.32 1 3 C0.01 3 -0.98 3 -2 3 C0.10540926 5.31622777 0.10540926 5.31622777 4 7 C0.04 8.98 -3.92 10.96 -8 13 C-8.66 11.35 -9.32 9.7 -10 8 C-11.32 8 -12.64 8 -14 8 C-14 7.34 -14 6.68 -14 6 C-11.71220962 4.96959833 -9.42048864 3.95047982 -7.125 2.9375 C-6.47402344 2.64294922 -5.82304687 2.34839844 -5.15234375 2.04492188 C-3.45989459 1.30338487 -1.73131425 0.64560999 0 0 Z " fill="#144280" transform="translate(303,265)"/>
<path d="M0 0 C2.03532927 1.68135896 2.95378863 2.87456913 3.875 5.375 C4.04667171 8.98010598 3.40481534 10.30369189 1 13 C-4.46380162 14.94474295 -9.23905414 15.20574807 -15 15 C-14 13 -14 13 -11 12 C-10.26676204 9.98491642 -10.26676204 9.98491642 -10 8 C-9.01 8 -8.02 8 -7 8 C-7 8.99 -7 9.98 -7 11 C-6.01 11 -5.02 11 -4 11 C-4 10.01 -4 9.02 -4 8 C-3.34 8 -2.68 8 -2 8 C-0.52952664 4.08936776 -0.52952664 4.08936776 0 0 Z " fill="#B2833E" transform="translate(132,189)"/>
<path d="M0 0 C1.2065625 0.0309375 1.2065625 0.0309375 2.4375 0.0625 C0.4575 1.0525 0.4575 1.0525 -1.5625 2.0625 C-1.5625 3.0525 -1.5625 4.0425 -1.5625 5.0625 C9.9875 5.0625 21.5375 5.0625 33.4375 5.0625 C33.4375 4.4025 33.4375 3.7425 33.4375 3.0625 C31.4575 3.0625 29.4775 3.0625 27.4375 3.0625 C27.1075 2.0725 26.7775 1.0825 26.4375 0.0625 C33.1875 -0.0625 33.1875 -0.0625 35.4375 1.0625 C35.4375 3.0425 35.4375 5.0225 35.4375 7.0625 C22.5675 7.0625 9.6975 7.0625 -3.5625 7.0625 C-3.5625 0.08689024 -3.5625 0.08689024 0 0 Z " fill="#274877" transform="translate(343.5625,298.9375)"/>
<path d="M0 0 C2.28062828 3.42094242 2.21925007 4.68187222 2.125 8.6875 C2.10695313 9.68136719 2.08890625 10.67523438 2.0703125 11.69921875 C2.03550781 12.83810547 2.03550781 12.83810547 2 14 C1.01 14 0.02 14 -1 14 C-1 13.01 -1 12.02 -1 11 C-2.98 11.99 -2.98 11.99 -5 13 C-5.66 12.34 -6.32 11.68 -7 11 C-6.34 10.34 -5.68 9.68 -5 9 C-4.59952556 6.67724823 -4.2602896 4.34260643 -4 2 C-4.99 1.67 -5.98 1.34 -7 1 C-4.46578263 -0.26710868 -2.80561762 -0.28056176 0 0 Z " fill="#093B7B" transform="translate(438,241)"/>
<path d="M0 0 C0.99 0.33 1.98 0.66 3 1 C0.40033946 6.19932107 -1.63926297 9.26260237 -7 12 C-7.99 11.67 -8.98 11.34 -10 11 C-10.33 10.34 -10.66 9.68 -11 9 C-13.52733235 8.34444881 -13.52733235 8.34444881 -16 8 C-16 7.67 -16 7.34 -16 7 C-15.07767578 6.72736328 -15.07767578 6.72736328 -14.13671875 6.44921875 C-12.92435547 6.07216797 -12.92435547 6.07216797 -11.6875 5.6875 C-10.48673828 5.32205078 -10.48673828 5.32205078 -9.26171875 4.94921875 C-6.90035427 3.95817977 -5.66120007 2.91925057 -4 1 C-4 1.99 -4 2.98 -4 4 C-2.68 3.34 -1.36 2.68 0 2 C0 1.34 0 0.68 0 0 Z " fill="#525565" transform="translate(73,116)"/>
<path d="M0 0 C11.55 0 23.1 0 35 0 C35 0.33 35 0.66 35 1 C24.11 1 13.22 1 2 1 C1.01 4.3 0.02 7.6 -1 11 C-1.99 12.485 -1.99 12.485 -3 14 C-5.32409827 7.76163095 -5.32409827 7.76163095 -3.75 4.0625 C-2.88375 3.0415625 -2.88375 3.0415625 -2 2 C-1.34 2 -0.68 2 0 2 C0 1.34 0 0.68 0 0 Z " fill="#5B7FA9" transform="translate(98,277)"/>
<path d="M0 0 C0 0.66 0 1.32 0 2 C-1.98 2.66 -3.96 3.32 -6 4 C-6.33 5.65 -6.66 7.3 -7 9 C-9.97 8.67 -12.94 8.34 -16 8 C-16 6.02 -16 4.04 -16 2 C-14.08404518 1.66259915 -12.16720278 1.33023588 -10.25 1 C-9.18265625 0.814375 -8.1153125 0.62875 -7.015625 0.4375 C-4 0 -4 0 0 0 Z " fill="#4C6B97" transform="translate(190,207)"/>
<path d="M0 0 C2.5625 0.1875 2.5625 0.1875 4.5625 2.1875 C4.1875 5.8125 4.1875 5.8125 3.5625 9.1875 C1.9125 9.5175 0.2625 9.8475 -1.4375 10.1875 C-3 8.5 -3 8.5 -4.4375 6.1875 C-3.88975225 0.29921171 -3.88975225 0.29921171 0 0 Z " fill="#1C1C1C" transform="translate(186.4375,312.8125)"/>
<path d="M0 0 C1.21236328 0.02707031 1.21236328 0.02707031 2.44921875 0.0546875 C3.37154297 0.08949219 3.37154297 0.08949219 4.3125 0.125 C5.3125 3.125 5.3125 3.125 5.3125 6.125 C1.3525 6.125 -2.6075 6.125 -6.6875 6.125 C-7.0175 4.805 -7.3475 3.485 -7.6875 2.125 C-4.48369983 -0.01086678 -3.66810033 -0.10632175 0 0 Z " fill="#3B3D51" transform="translate(56.6875,84.875)"/>
<path d="M0 0 C1.9375 0.6875 1.9375 0.6875 4 2 C5.29470982 5.68494333 4.82960893 8.26675983 4 12 C3.61592758 15.32862761 3.30452011 18.66323707 3 22 C2.67 22 2.34 22 2 22 C2 16.72 2 11.44 2 6 C0.35 6 -1.3 6 -3 6 C-3.33 5.01 -3.66 4.02 -4 3 C-3.01 3 -2.02 3 -1 3 C-0.67 2.01 -0.34 1.02 0 0 Z " fill="#0B3A76" transform="translate(305,265)"/>
<path d="M0 0 C3.2542015 2.83430453 4.5206753 4.68607774 5 9 C3.73160474 9.50615298 2.46016898 10.00469099 1.1875 10.5 C0.47980469 10.7784375 -0.22789063 11.056875 -0.95703125 11.34375 C-3 12 -3 12 -6 12 C-6 11.34 -6 10.68 -6 10 C-6.66 9.67 -7.32 9.34 -8 9 C-7.34 8.67 -6.68 8.34 -6 8 C-6.66 6.68 -7.32 5.36 -8 4 C-7.484375 4.28875 -6.96875 4.5775 -6.4375 4.875 C-3.37643275 6.28780027 -0.25055082 7.1248517 3 8 C2.505 7.05125 2.01 6.1025 1.5 5.125 C0 2 0 2 0 0 Z " fill="#B18A52" transform="translate(106,196)"/>
<path d="M0 0 C0.99 0.33 1.98 0.66 3 1 C0.80645161 6.60573477 0.80645161 6.60573477 -2.8125 8.375 C-5.97074833 8.99426438 -8.79085968 9.15281621 -12 9 C-8.67529412 4.19764706 -8.67529412 4.19764706 -5.4375 3.25 C-4.2309375 3.12625 -4.2309375 3.12625 -3 3 C-2.01 2.67 -1.02 2.34 0 2 C0 1.34 0 0.68 0 0 Z " fill="#0D3D7D" transform="translate(301,296)"/>
<path d="M0 0 C0.33 0 0.66 0 1 0 C0.93489583 2.01822917 0.86979167 4.03645833 0.8046875 6.0546875 C0.81668311 8.23863645 0.81668311 8.23863645 3 10 C1.7934375 10.61875 1.7934375 10.61875 0.5625 11.25 C-2.14109718 12.73452331 -2.14109718 12.73452331 -2.8125 15.1875 C-2.874375 15.785625 -2.93625 16.38375 -3 17 C-3.66 17 -4.32 17 -5 17 C-5.33 18.32 -5.66 19.64 -6 21 C-6.66 20.67 -7.32 20.34 -8 20 C-5.36 13.4 -2.72 6.8 0 0 Z " fill="#2B4F81" transform="translate(96,263)"/>
<path d="M0 0 C0.66 0 1.32 0 2 0 C2 1.98 2 3.96 2 6 C-11.53 6 -25.06 6 -39 6 C-39 5.67 -39 5.34 -39 5 C-26.46 5 -13.92 5 -1 5 C-0.67 3.35 -0.34 1.7 0 0 Z " fill="#193B6A" transform="translate(425,300)"/>
<path d="M0 0 C2 3 2 3 2 7 C-1.63 7 -5.26 7 -9 7 C-9.33 6.01 -9.66 5.02 -10 4 C-9.16855469 3.69255859 -9.16855469 3.69255859 -8.3203125 3.37890625 C-7.59585938 3.10949219 -6.87140625 2.84007812 -6.125 2.5625 C-5.40570313 2.29566406 -4.68640625 2.02882813 -3.9453125 1.75390625 C-1.96351155 1.02083146 -1.96351155 1.02083146 0 0 Z " fill="#083A7F" transform="translate(141,298)"/>
<path d="M0 0 C2.57061106 1.90001687 3.0489541 3.17297117 3.9375 6.3125 C4.01503729 10.88720012 2.95173466 12.56960567 0 16 C-2.99110566 18.12272015 -5.38437619 18.20086799 -9 18 C-9 17.34 -9 16.68 -9 16 C-6.69 16 -4.38 16 -2 16 C-2 15.01 -2 14.02 -2 13 C-1.01 13 -0.02 13 1 13 C1.04254356 11.00045254 1.04080783 8.99958364 1 7 C0.67 6.67 0.34 6.34 0 6 C-0.04080783 4.00041636 -0.04254356 1.99954746 0 0 Z " fill="#43628A" transform="translate(366,207)"/>
<path d="M0 0 C0.66 0 1.32 0 2 0 C2.66 1.65 3.32 3.3 4 5 C2.68 6.65 1.36 8.3 0 10 C-1.32 9.67 -2.64 9.34 -4 9 C-4 7.35 -4 5.7 -4 4 C-3.01 4 -2.02 4 -1 4 C-0.67 2.68 -0.34 1.36 0 0 Z " fill="#1E4B80" transform="translate(260,294)"/>
<path d="M0 0 C0.33 0 0.66 0 1 0 C1.33 13.86 1.66 27.72 2 42 C1.01 42 0.02 42 -1 42 C-0.67 28.14 -0.34 14.28 0 0 Z " fill="#0D3971" transform="translate(245,249)"/>
<path d="M0 0 C3.63 0 7.26 0 11 0 C11.66 1.65 12.32 3.3 13 5 C10.03 5 7.06 5 4 5 C4.33 4.01 4.66 3.02 5 2 C3.02 2 1.04 2 -1 2 C-0.67 1.34 -0.34 0.68 0 0 Z " fill="#3D3E50" transform="translate(51,124)"/>
<path d="M0 0 C0.99 0 1.98 0 3 0 C3.66 0.66 4.32 1.32 5 2 C8.58343976 2.16677282 8.58343976 2.16677282 12 2 C12 2.66 12 3.32 12 4 C13.32 4.66 14.64 5.32 16 6 C8.88658735 6.45164525 4.28453206 5.32797915 -2 2 C-1.34 1.34 -0.68 0.68 0 0 Z " fill="#525465" transform="translate(44,124)"/>
<path d="M0 0 C0.99 0 1.98 0 3 0 C3 1.65 3 3.3 3 5 C12.24 5 21.48 5 31 5 C31 5.33 31 5.66 31 6 C20.77 6 10.54 6 0 6 C0 4.02 0 2.04 0 0 Z " fill="#183C70" transform="translate(129,300)"/>
<path d="M0 0 C2.31 0 4.62 0 7 0 C7 5.28 7 10.56 7 16 C6.34 16 5.68 16 5 16 C5 11.38 5 6.76 5 2 C3.35 2 1.7 2 0 2 C-0.33 2.66 -0.66 3.32 -1 4 C-0.67 2.68 -0.34 1.36 0 0 Z " fill="#3B5986" transform="translate(240,226)"/>
<path d="M0 0 C0.28875 0.61875 0.5775 1.2375 0.875 1.875 C2.70629991 5.33412205 3.81061477 5.94122527 7.625 7.125 C8.73875 7.41375 9.8525 7.7025 11 8 C11 9.98 11 11.96 11 14 C9.68 13.67 8.36 13.34 7 13 C7.66 13 8.32 13 9 13 C8.67 12.01 8.34 11.02 8 10 C6.865625 9.731875 5.73125 9.46375 4.5625 9.1875 C2.7990625 8.5996875 2.7990625 8.5996875 1 8 C-0.5 5 -0.5 5 -1 2 C-0.67 1.34 -0.34 0.68 0 0 Z " fill="#43608A" transform="translate(203,292)"/>
<path d="M0 0 C0.66 0.33 1.32 0.66 2 1 C1.67 1.66 1.34 2.32 1 3 C0.01 3 -0.98 3 -2 3 C-0.04783565 4.95216435 1.53199953 5.84826645 4 7 C-1.75 10 -1.75 10 -4 10 C-4 8.02 -4 6.04 -4 4 C-4.99 3.67 -5.98 3.34 -7 3 C-4.69631264 1.93347808 -2.35981813 0.93578995 0 0 Z " fill="#345889" transform="translate(303,265)"/>
<path d="M0 0 C2.33333333 2.33333333 4.66666667 4.66666667 7 7 C7 7.99 7 8.98 7 10 C2.25003088 9.29630087 -0.70531276 6.29468724 -4 3 C-2.68 2.67 -1.36 2.34 0 2 C0 1.34 0 0.68 0 0 Z " fill="#BB9E76" transform="translate(96,174)"/>
<path d="M0 0 C0.8971875 0.7425 0.8971875 0.7425 1.8125 1.5 C3.97029994 3.28276418 3.97029994 3.28276418 7 3 C3.375 8.75 3.375 8.75 0 11 C0.33 9.35 0.66 7.7 1 6 C-0.65 4.68 -2.3 3.36 -4 2 C-2.68 1.34 -1.36 0.68 0 0 Z " fill="#2C5291" transform="translate(302,291)"/>
<path d="M0 0 C0 0.99 0 1.98 0 3 C-1.32 3 -2.64 3 -4 3 C-4 3.99 -4 4.98 -4 6 C-5.65 6 -7.3 6 -9 6 C-9 4.02 -9 2.04 -9 0 C-5.52176885 -1.15941038 -3.54104422 -0.70820884 0 0 Z " fill="#1F4B83" transform="translate(349,244)"/>
<path d="M0 0 C0.66 0.33 1.32 0.66 2 1 C2.40729228 3.32156597 2.74438677 5.6568787 3 8 C2.34 8 1.68 8 1 8 C0.67 8.66 0.34 9.32 0 10 C-0.99 9.67 -1.98 9.34 -3 9 C-3.33 7.35 -3.66 5.7 -4 4 C-3.01 3.67 -2.02 3.34 -1 3 C-0.67 2.01 -0.34 1.02 0 0 Z " fill="#3F4054" transform="translate(38,109)"/>
<path d="M0 0 C1.98 0 3.96 0 6 0 C6.33 0.99 6.66 1.98 7 3 C6.3503125 3.61875 6.3503125 3.61875 5.6875 4.25 C3.94161728 6.06054505 2.47380729 7.96474232 1 10 C-1.56687367 6.1496895 -0.83288724 4.41430237 0 0 Z " fill="#080808" transform="translate(358,364)"/>
<path d="M0 0 C0.78375 0.04125 1.5675 0.0825 2.375 0.125 C1.385 3.095 0.395 6.065 -0.625 9.125 C-2.275 9.125 -3.925 9.125 -5.625 9.125 C-5.955 8.465 -6.285 7.805 -6.625 7.125 C-5.965 7.125 -5.305 7.125 -4.625 7.125 C-4.295 6.465 -3.965 5.805 -3.625 5.125 C-3.955 4.135 -4.285 3.145 -4.625 2.125 C-2.625 0.125 -2.625 0.125 0 0 Z " fill="#204B84" transform="translate(105.625,257.875)"/>
<path d="M0 0 C2.375 0.3125 2.375 0.3125 5 1 C5.66 1.99 6.32 2.98 7 4 C3.17679443 5.42258812 0.08718695 6.24042276 -4 6 C-3.67 4.68 -3.34 3.36 -3 2 C-2.01 2 -1.02 2 0 2 C0 1.34 0 0.68 0 0 Z " fill="#073B79" transform="translate(392,243)"/>
<path d="M0 0 C0.66 0.99 1.32 1.98 2 3 C5.58357241 3.25015873 5.58357241 3.25015873 9 3 C9.33 4.65 9.66 6.3 10 8 C8.68 8.99 7.36 9.98 6 11 C6 9.33333333 6 7.66666667 6 6 C4.35 6 2.7 6 1 6 C0.34 4.35 -0.32 2.7 -1 1 C-0.67 0.67 -0.34 0.34 0 0 Z " fill="#325A86" transform="translate(324,293)"/>
<path d="M0 0 C4.08963819 2.28538605 7.46362104 4.95706926 11 8 C9.68 8.33 8.36 8.66 7 9 C7 8.34 7 7.68 7 7 C5.02 7.33 3.04 7.66 1 8 C0.67 5.36 0.34 2.72 0 0 Z " fill="#B5925C" transform="translate(89,181)"/>
<path d="M0 0 C0 0.66 0 1.32 0 2 C-0.99 2.33 -1.98 2.66 -3 3 C-3.33 3.99 -3.66 4.98 -4 6 C-3.05125 5.79375 -2.1025 5.5875 -1.125 5.375 C0.421875 5.189375 0.421875 5.189375 2 5 C2.66 5.66 3.32 6.32 4 7 C3.34 7 2.68 7 2 7 C1.67 7.66 1.34 8.32 1 9 C0.67 8.67 0.34 8.34 0 8 C-2.32817964 7.63239269 -4.6618385 7.29758419 -7 7 C-7 5.02 -7 3.04 -7 1 C-4 0 -4 0 0 0 Z " fill="#37588A" transform="translate(392,243)"/>
<path d="M0 0 C3.63 0 7.26 0 11 0 C11 2.31 11 4.62 11 7 C6.71 7 2.42 7 -2 7 C-2 6.67 -2 6.34 -2 6 C1.96 6 5.92 6 10 6 C9.67 5.01 9.34 4.02 9 3 C7.700625 2.87625 6.40125 2.7525 5.0625 2.625 C2.84765625 2.4140625 2.84765625 2.4140625 1 2 C0.67 1.34 0.34 0.68 0 0 Z " fill="#14396A" transform="translate(249,241)"/>
<path d="M0 0 C5.27112904 2.79692561 9.59398317 5.98235547 14 10 C12.02 10.99 12.02 10.99 10 12 C9.34 11.34 8.68 10.68 8 10 C7.34 9.67 6.68 9.34 6 9 C6.33 8.01 6.66 7.02 7 6 C5.35 5.67 3.7 5.34 2 5 C2 4.34 2 3.68 2 3 C1.34 2.67 0.68 2.34 0 2 C0 1.34 0 0.68 0 0 Z " fill="#B89763" transform="translate(80,161)"/>
<path d="M0 0 C0.99 0.33 1.98 0.66 3 1 C3.1953125 7.0546875 3.1953125 7.0546875 3 9 C2.34 9.66 1.68 10.32 1 11 C0.67 10.01 0.34 9.02 0 8 C-0.66 7.67 -1.32 7.34 -2 7 C-2.125 4.625 -2.125 4.625 -2 2 C-1.34 1.34 -0.68 0.68 0 0 Z " fill="#0A3A80" transform="translate(131,257)"/>
<path d="M0 0 C2.31 0 4.62 0 7 0 C6.67 2.31 6.34 4.62 6 7 C4.68 7 3.36 7 2 7 C1.34 4.69 0.68 2.38 0 0 Z " fill="#5A86B7" transform="translate(59,108)"/>
<path d="M0 0 C0.33730842 1.43657245 0.66969591 2.87430093 1 4.3125 C1.185625 5.11300781 1.37125 5.91351563 1.5625 6.73828125 C2 9 2 9 2 12 C1.01 12 0.02 12 -1 12 C-1.33 8.7 -1.66 5.4 -2 2 C-3.65 2.33 -5.3 2.66 -7 3 C-7 2.34 -7 1.68 -7 1 C-4.53721199 -0.231394 -2.7204945 -0.07159196 0 0 Z " fill="#204679" transform="translate(410,240)"/>
<path d="M0 0 C0.99 1.32 1.98 2.64 3 4 C2.34 4 1.68 4 1 4 C1.33 5.65 1.66 7.3 2 9 C1.01 9 0.02 9 -1 9 C-3.1875 6.5 -3.1875 6.5 -5 4 C-2 2 -2 2 0 2 C0 1.34 0 0.68 0 0 Z " fill="#4D4C5F" transform="translate(41,115)"/>
<path d="M0 0 C0.99 0.33 1.98 0.66 3 1 C-0.625 7.875 -0.625 7.875 -4 9 C-4.99 8.34 -5.98 7.68 -7 7 C-6.34 7 -5.68 7 -5 7 C-4.731875 6.360625 -4.46375 5.72125 -4.1875 5.0625 C-3 3 -3 3 0 2 C0 1.34 0 0.68 0 0 Z " fill="#4E4C61" transform="translate(73,116)"/>
<path d="M0 0 C0.99 0 1.98 0 3 0 C3.22245393 1.60226955 3.42746669 3.20696767 3.625 4.8125 C3.74101563 5.70582031 3.85703125 6.59914063 3.9765625 7.51953125 C4 10 4 10 2 13 C1.01 12.67 0.02 12.34 -1 12 C-1 10.35 -1 8.7 -1 7 C-0.67 7 -0.34 7 0 7 C0 4.69 0 2.38 0 0 Z " fill="#4E739C" transform="translate(68,103)"/>
<path d="M0 0 C0.66 0.33 1.32 0.66 2 1 C1.8125 3.375 1.8125 3.375 1 6 C-1.5625 7.3125 -1.5625 7.3125 -4 8 C-4.33 6.68 -4.66 5.36 -5 4 C-3.35 2.68 -1.7 1.36 0 0 Z " fill="#1B1B1B" transform="translate(145,341)"/>
<path d="M0 0 C-0.3125 1.9375 -0.3125 1.9375 -1 4 C-1.99 4.33 -2.98 4.66 -4 5 C-4.66 5.66 -5.32 6.32 -6 7 C-6.66 6.67 -7.32 6.34 -8 6 C-9.32860925 5.64830932 -10.66158328 5.31229724 -12 5 C-10.56705502 4.15885829 -9.12845595 3.32734313 -7.6875 2.5 C-6.88699219 2.0359375 -6.08648437 1.571875 -5.26171875 1.09375 C-3 0 -3 0 0 0 Z " fill="#2D568D" transform="translate(288,273)"/>
<path d="M0 0 C2.80561393 1.40280696 3.00680507 3.0509005 4.125 5.9375 C4.47820312 6.83339844 4.83140625 7.72929687 5.1953125 8.65234375 C6 11 6 11 6 13 C4.68 13 3.36 13 2 13 C2 11.35 2 9.7 2 8 C1.34 7.67 0.68 7.34 0 7 C0 4.69 0 2.38 0 0 Z " fill="#2B4F85" transform="translate(137,238)"/>
<path d="M0 0 C3.21524305 1.40844718 5.32183868 3.10344786 7.75 5.625 C8.67039062 6.57246094 8.67039062 6.57246094 9.609375 7.5390625 C10.29773438 8.26222656 10.29773438 8.26222656 11 9 C10.34 9.66 9.68 10.32 9 11 C8.67 10.34 8.34 9.68 8 9 C5.47266765 8.34444881 5.47266765 8.34444881 3 8 C3 6.35 3 4.7 3 3 C2.01 3.33 1.02 3.66 0 4 C0 2.68 0 1.36 0 0 Z " fill="#BC9B68" transform="translate(44,196)"/>
<path d="M0 0 C0 0.99 0 1.98 0 3 C1.06541016 3.18175781 1.06541016 3.18175781 2.15234375 3.3671875 C3.07144531 3.53476563 3.99054688 3.70234375 4.9375 3.875 C5.85402344 4.03742188 6.77054688 4.19984375 7.71484375 4.3671875 C8.84599609 4.68042969 8.84599609 4.68042969 10 5 C10.33 5.66 10.66 6.32 11 7 C6.05 6.67 1.1 6.34 -4 6 C-2 2 -2 2 0 0 Z " fill="#B6996C" transform="translate(116,181)"/>
<path d="M0 0 C0.66 0 1.32 0 2 0 C2.185625 0.9590625 2.185625 0.9590625 2.375 1.9375 C2.684375 2.9584375 2.684375 2.9584375 3 4 C3.66 4.33 4.32 4.66 5 5 C4.835 5.598125 4.67 6.19625 4.5 6.8125 C3.8885876 9.11344336 3.8885876 9.11344336 4 12 C2.29159719 10.36587557 1.06546953 9.13093906 0 7 C-0.04022391 4.6670134 -0.04320247 2.33293334 0 0 Z " fill="#244E83" transform="translate(350,211)"/>
<path d="M0 0 C0.99 0 1.98 0 3 0 C4 5.75 4 5.75 4 8 C2.35 8 0.7 8 -1 8 C-1 1 -1 1 0 0 Z " fill="#073C7D" transform="translate(104,250)"/>
<path d="M0 0 C3 1 3 1 4.25 2.5625 C5.40561119 6.31823637 4.74626156 9.14431529 4 13 C3.34 13.66 2.68 14.32 2 15 C1.93941406 14.16855469 1.87882812 13.33710938 1.81640625 12.48046875 C1.73261719 11.39378906 1.64882813 10.30710938 1.5625 9.1875 C1.48128906 8.10855469 1.40007812 7.02960938 1.31640625 5.91796875 C1.09787539 2.94010095 1.09787539 2.94010095 0 0 Z " fill="#3E5A8E" transform="translate(438,241)"/>
<path d="M0 0 C0 0.99 0 1.98 0 3 C2.97 3.495 2.97 3.495 6 4 C5 6 5 6 3.3125 6.75 C0.17326781 7.08937645 -2.08902106 6.12469641 -5 5 C-4.67 4.34 -4.34 3.68 -4 3 C-4.99 2.34 -5.98 1.68 -7 1 C-3.535 0.505 -3.535 0.505 0 0 Z " fill="#1B4A88" transform="translate(400,241)"/>
<path d="M0 0 C2.64 0 5.28 0 8 0 C7.67 1.65 7.34 3.3 7 5 C4.69 5 2.38 5 0 5 C0 3.35 0 1.7 0 0 Z " fill="#10396F" transform="translate(175,209)"/>
<path d="M0 0 C2.97 0.33 5.94 0.66 9 1 C8.45276317 4.37462715 7.9451 6.08235 6 9 C5 4.25 5 4.25 5 2 C3.02 2.66 1.04 3.32 -1 4 C-0.67 2.68 -0.34 1.36 0 0 Z " fill="#225083" transform="translate(102,248)"/>
<path d="M0 0 C0.33 1.32 0.66 2.64 1 4 C1.99 4.66 2.98 5.32 4 6 C3.01 7.485 3.01 7.485 2 9 C2 9.66 2 10.32 2 11 C0.35 10.67 -1.3 10.34 -3 10 C-2.01 6.7 -1.02 3.4 0 0 Z " fill="#194F87" transform="translate(108,232)"/>
<path d="M0 0 C2.97 0.33 5.94 0.66 9 1 C9 1.99 9 2.98 9 4 C6.03 5.65 3.06 7.3 0 9 C0 8.01 0 7.02 0 6 C0.99 6 1.98 6 3 6 C3.33 4.35 3.66 2.7 4 1 C2.68 0.67 1.36 0.34 0 0 Z " fill="#B49466" transform="translate(150,172)"/>
<path d="M0 0 C1.32 0 2.64 0 4 0 C4.33 1.65 4.66 3.3 5 5 C3.35 5.33 1.7 5.66 0 6 C-0.38218767 4.34385343 -0.71395102 2.67542976 -1 1 C-0.67 0.67 -0.34 0.34 0 0 Z " fill="#2A2A2A" transform="translate(377,372)"/>
<path d="M0 0 C2.31 0 4.62 0 7 0 C7.33 0.99 7.66 1.98 8 3 C4.62902617 4.49821059 2.79557881 5 -1 5 C-0.67 3.35 -0.34 1.7 0 0 Z " fill="#063B7E" transform="translate(278,244)"/>
<path d="M0 0 C0.99 0 1.98 0 3 0 C3 0.66 3 1.32 3 2 C3.99 2.33 4.98 2.66 6 3 C6.33 4.65 6.66 6.3 7 8 C7.66 8 8.32 8 9 8 C8.67 8.66 8.34 9.32 8 10 C1.42857143 5 1.42857143 5 0 0 Z " fill="#BA9C69" transform="translate(19,208)"/>
<path d="M0 0 C2.97 0.33 5.94 0.66 9 1 C9 2.98 9 4.96 9 7 C7.68 6.67 6.36 6.34 5 6 C5.66 6 6.32 6 7 6 C6.67 5.01 6.34 4.02 6 3 C3.69 2.67 1.38 2.34 -1 2 C-0.67 1.34 -0.34 0.68 0 0 Z " fill="#46628A" transform="translate(97,299)"/>
<path d="M0 0 C4.75 1.875 4.75 1.875 7 3 C7 4.98 7 6.96 7 9 C5.109375 8.75390625 5.109375 8.75390625 3 8 C1.953125 6.15234375 1.953125 6.15234375 1.25 3.9375 C1.00765625 3.20402344 0.7653125 2.47054687 0.515625 1.71484375 C0.34546875 1.14894531 0.1753125 0.58304688 0 0 Z " fill="#224B87" transform="translate(303,248)"/>
<path d="M0 0 C0.99 0.66 1.98 1.32 3 2 C3 2.66 3 3.32 3 4 C5.64 4.66 8.28 5.32 11 6 C11 6.33 11 6.66 11 7 C3.73846154 7.61538462 3.73846154 7.61538462 0 4.5 C-0.66 3.675 -1.32 2.85 -2 2 C-1.34 1.34 -0.68 0.68 0 0 Z " fill="#476A97" transform="translate(427,251)"/>
<path d="M0 0 C0.66 0.33 1.32 0.66 2 1 C0.515 2.485 0.515 2.485 -1 4 C-0.360625 4.268125 0.27875 4.53625 0.9375 4.8125 C3 6 3 6 4 9 C1.0280615 7.87548273 -1.33440687 6.77706209 -4 5 C-3.6875 3.0625 -3.6875 3.0625 -3 1 C-2.01 0.67 -1.02 0.34 0 0 Z " fill="#C3A77E" transform="translate(11,153)"/>
<path d="M0 0 C1.41823316 0.08006155 2.83603027 0.17654137 4.25 0.3125 C4.25 0.6425 4.25 0.9725 4.25 1.3125 C2.27 1.6425 0.29 1.9725 -1.75 2.3125 C-2.08 3.3025 -2.41 4.2925 -2.75 5.3125 C-4.73 5.3125 -6.71 5.3125 -8.75 5.3125 C-6.33348981 1.10987358 -4.73606739 -0.03729187 0 0 Z " fill="#3F5D8B" transform="translate(359.75,204.6875)"/>
<path d="M0 0 C3.25 0.8125 3.25 0.8125 6 2 C6 2.99 6 3.98 6 5 C2.7 4.34 -0.6 3.68 -4 3 C-2.68 2.01 -1.36 1.02 0 0 Z " fill="#2D5383" transform="translate(311,241)"/>
<path d="M0 0 C2.31 0.33 4.62 0.66 7 1 C6.67 1.66 6.34 2.32 6 3 C5.01 3 4.02 3 3 3 C3.33 3.99 3.66 4.98 4 6 C2.68 5.34 1.36 4.68 0 4 C0 2.68 0 1.36 0 0 Z " fill="#134980" transform="translate(304,240)"/>
<path d="M0 0 C3.96 0 7.92 0 12 0 C12 0.99 12 1.98 12 3 C10.68 3 9.36 3 8 3 C8 2.34 8 1.68 8 1 C5.23723823 1.52268466 2.6739124 2.10869587 0 3 C0 2.01 0 1.02 0 0 Z " fill="#4C79A6" transform="translate(41,101)"/>
<path d="M0 0 C2.97 0.99 5.94 1.98 9 3 C8.67 4.65 8.34 6.3 8 8 C7.67 6.68 7.34 5.36 7 4 C4.69 4 2.38 4 0 4 C0 2.68 0 1.36 0 0 Z " fill="#2C598C" transform="translate(416,297)"/>
<path d="M0 0 C0.66 0 1.32 0 2 0 C2 0.99 2 1.98 2 3 C2.99 3.33 3.98 3.66 5 4 C4 5 4 5 2.15234375 5.09765625 C0.1015625 5.06510417 -1.94921875 5.03255208 -4 5 C-3.34 4.67 -2.68 4.34 -2 4 C-0.86649466 1.98330173 -0.86649466 1.98330173 0 0 Z " fill="#18417F" transform="translate(435,252)"/>
<path d="M0 0 C0.66 1.32 1.32 2.64 2 4 C1.21625 4.433125 0.4325 4.86625 -0.375 5.3125 C-3.21698375 6.89220247 -3.21698375 6.89220247 -5 10 C-5.66 10 -6.32 10 -7 10 C-5.33248852 6.05860922 -2.77289351 3.2107188 0 0 Z " fill="#264B7E" transform="translate(238,229)"/>
<path d="M0 0 C2.7972908 2.06756277 3.02692273 3.14440371 3.6875 6.6875 C3.790625 7.780625 3.89375 8.87375 4 10 C3.01 10.495 3.01 10.495 2 11 C0.19769832 7.17010894 -0.19622241 4.21878192 0 0 Z " fill="#4F6E96" transform="translate(366,207)"/>
<path d="M0 0 C5.4389165 -0.21755666 9.87080814 -0.10428384 15 2 C15 2.66 15 3.32 15 4 C10.05 3.01 5.1 2.02 0 1 C0 0.67 0 0.34 0 0 Z " fill="#BB9D73" transform="translate(58,164)"/>
<path d="M0 0 C2.46800047 1.15173355 4.04783565 2.04783565 6 4 C5.625 6.125 5.625 6.125 5 8 C2.5 5.6875 2.5 5.6875 0 3 C0 2.01 0 1.02 0 0 Z " fill="#22477A" transform="translate(231,297)"/>
<path d="M0 0 C1.65 0.33 3.3 0.66 5 1 C4.01 1.66 3.02 2.32 2 3 C1.26393501 6.56769552 1.26393501 6.56769552 1 10 C0.34 10 -0.32 10 -1 10 C-1.125 2.25 -1.125 2.25 0 0 Z " fill="#B89669" transform="translate(20,191)"/>
<path d="M0 0 C5.23880078 0.55145271 9.97350697 1.42922093 15 3 C11.64783266 4.10176129 9.24878922 3.89303058 5.8125 3.1875 C4.93207031 3.01605469 4.05164062 2.84460938 3.14453125 2.66796875 C2.43683594 2.44753906 1.72914062 2.22710937 1 2 C0.67 1.34 0.34 0.68 0 0 Z " fill="#B6996E" transform="translate(52,151)"/>
<path d="M0 0 C1.2684375 0.12375 1.2684375 0.12375 2.5625 0.25 C3.2225 1.24 3.8825 2.23 4.5625 3.25 C1.5625 4.25 1.5625 4.25 -1.4375 3.25 C-1.7675 3.91 -2.0975 4.57 -2.4375 5.25 C-3 3.3125 -3 3.3125 -3.4375 1.25 C-2.4375 0.25 -2.4375 0.25 0 0 Z " fill="#5A81AB" transform="translate(67.4375,99.75)"/>
<path d="M0 0 C3 3.625 3 3.625 3 7 C1.68 7 0.36 7 -1 7 C-1.625 4.625 -1.625 4.625 -2 2 C-1.34 1.34 -0.68 0.68 0 0 Z " fill="#1E497F" transform="translate(275,279)"/>
<path d="M0 0 C2.31 0 4.62 0 7 0 C6.02433888 1.16959987 5.044375 2.33561177 4.0625 3.5 C3.51722656 4.1496875 2.97195313 4.799375 2.41015625 5.46875 C1.94480469 5.9740625 1.47945313 6.479375 1 7 C0.67 7 0.34 7 0 7 C0 4.69 0 2.38 0 0 Z " fill="#3D6094" transform="translate(288,278)"/>
<path d="M0 0 C-1.77444972 2.24606427 -2.58352485 2.95081002 -5.48046875 3.29296875 C-6.37378906 3.25816406 -7.26710938 3.22335938 -8.1875 3.1875 C-9.08855469 3.16042969 -9.98960938 3.13335937 -10.91796875 3.10546875 C-11.94857422 3.05326172 -11.94857422 3.05326172 -13 3 C-8.49192825 0.69441653 -5.09714099 -0.14158725 0 0 Z " fill="#B99466" transform="translate(28,150)"/>
<path d="M0 0 C2.02045442 0.60183749 4.02111039 1.27306096 6 2 C6.33 2.66 6.66 3.32 7 4 C4.03 3.505 4.03 3.505 1 3 C1 3.99 1 4.98 1 6 C-0.32 5.67 -1.64 5.34 -3 5 C-2.01 5 -1.02 5 0 5 C-0.2784375 4.0409375 -0.2784375 4.0409375 -0.5625 3.0625 C-0.706875 2.381875 -0.85125 1.70125 -1 1 C-0.67 0.67 -0.34 0.34 0 0 Z " fill="#4F5062" transform="translate(62,86)"/>
<path d="M0 0 C0.33 0.99 0.66 1.98 1 3 C0.67 3.33 0.34 3.66 0 4 C-1.52519276 3.91062197 -3.04681929 3.75462854 -4.5625 3.5625 C-5.80193359 3.40974609 -5.80193359 3.40974609 -7.06640625 3.25390625 C-7.70449219 3.17011719 -8.34257812 3.08632813 -9 3 C-9 2.67 -9 2.34 -9 2 C-6.03 1.34 -3.06 0.68 0 0 Z " fill="#496794" transform="translate(138,297)"/>
<path d="M0 0 C0.66 0 1.32 0 2 0 C3.625 3.25 3.625 3.25 5 7 C4.34 8.32 3.68 9.64 3 11 C2.01 7.37 1.02 3.74 0 0 Z " fill="#3A5A8D" transform="translate(135,281)"/>
<path d="M0 0 C0 3 0 3 -1.4375 4.5 C-1.953125 4.995 -2.46875 5.49 -3 6 C-3.33 6.99 -3.66 7.98 -4 9 C-4.99 9 -5.98 9 -7 9 C-7 6 -7 6 -5.46875 4.39453125 C-4.49421875 3.61142578 -4.49421875 3.61142578 -3.5 2.8125 C-2.8503125 2.28269531 -2.200625 1.75289062 -1.53125 1.20703125 C-1.0259375 0.80871094 -0.520625 0.41039062 0 0 Z " fill="#A88B5B" transform="translate(120,196)"/>
<path d="M0 0 C1.98 0 3.96 0 6 0 C6 1.98 6 3.96 6 6 C4.68 5.67 3.36 5.34 2 5 C2.66 5 3.32 5 4 5 C3.24849977 1.72226496 3.24849977 1.72226496 0 0 Z " fill="#3B567E" transform="translate(208,300)"/>
<path d="M0 0 C-0.66 1.32 -1.32 2.64 -2 4 C-4.31 4 -6.62 4 -9 4 C-8 2 -8 2 -5.625 0.875 C-3 0 -3 0 0 0 Z " fill="#37588C" transform="translate(429,240)"/>
<path d="M0 0 C1.98 0.66 3.96 1.32 6 2 C6 2.33 6 2.66 6 3 C3.36 3.33 0.72 3.66 -2 4 C-1.34 2.68 -0.68 1.36 0 0 Z " fill="#B78F54" transform="translate(48,161)"/>
<path d="M0 0 C1.65 0 3.3 0 5 0 C5 0.66 5 1.32 5 2 C3.68 2.33 2.36 2.66 1 3 C0.67 4.65 0.34 6.3 0 8 C-0.98120464 4.94736336 -0.98120464 3.05263664 0 0 Z " fill="#3F3E4E" transform="translate(34,101)"/>
<path d="M0 0 C3.3 0 6.6 0 10 0 C6.39338934 1.80330533 3.91606575 2.46599103 0 3 C0 2.01 0 1.02 0 0 Z " fill="#1A3963" transform="translate(117,211)"/>
<path d="M0 0 C3.66881155 0.70554068 6.70450534 2.27735506 10 4 C5.82412255 5.39195915 3.86525224 3.82323219 0 2 C0 1.34 0 0.68 0 0 Z " fill="#B59868" transform="translate(60,205)"/>
<path d="M0 0 C0.66 0.33 1.32 0.66 2 1 C0.35 2.65 -1.3 4.3 -3 6 C-3.99 5.34 -4.98 4.68 -6 4 C-4.02 2.68 -2.04 1.36 0 0 Z " fill="#B8905D" transform="translate(123,176)"/>
<path d="M0 0 C5.75 1.75 5.75 1.75 8 4 C5 5 5 5 1.8125 3.5625 C0.884375 3.046875 -0.04375 2.53125 -1 2 C-0.67 1.34 -0.34 0.68 0 0 Z " fill="#C1A172" transform="translate(68,155)"/>
<path d="M0 0 C0.66 0.66 1.32 1.32 2 2 C2.66 1.67 3.32 1.34 4 1 C4.66 1.66 5.32 2.32 6 3 C5.34 4.32 4.68 5.64 4 7 C4 6.01 4 5.02 4 4 C3.01 4.33 2.02 4.66 1 5 C0.34 4.34 -0.32 3.68 -1 3 C-0.67 2.01 -0.34 1.02 0 0 Z " fill="#4C4D64" transform="translate(35,97)"/>
<path d="M0 0 C2.31 0.33 4.62 0.66 7 1 C5 3 5 3 2.375 3.125 C1.59125 3.08375 0.8075 3.0425 0 3 C0 2.01 0 1.02 0 0 Z " fill="#073B7F" transform="translate(96,302)"/>
<path d="M0 0 C-0.33 1.65 -0.66 3.3 -1 5 C-2.98 4.01 -4.96 3.02 -7 2 C-7 1.67 -7 1.34 -7 1 C-2.25 0 -2.25 0 0 0 Z " fill="#405F8D" transform="translate(183,298)"/>
<path d="M0 0 C0.928125 1.175625 0.928125 1.175625 1.875 2.375 C3.89858661 4.96837647 3.89858661 4.96837647 6 7 C4.68 7 3.36 7 2 7 C2 6.34 2 5.68 2 5 C1.01 4.67 0.02 4.34 -1 4 C-0.67 2.68 -0.34 1.36 0 0 Z " fill="#406087" transform="translate(160,291)"/>
<path d="M0 0 C1.32 0 2.64 0 4 0 C4.66 1.98 5.32 3.96 6 6 C5.01 6 4.02 6 3 6 C2.01 4.02 1.02 2.04 0 0 Z " fill="#345685" transform="translate(244,291)"/>
<path d="M0 0 C-0.33 1.32 -0.66 2.64 -1 4 C-3.97 3.505 -3.97 3.505 -7 3 C-5.40442685 -0.19114631 -3.35905282 0 0 0 Z " fill="#3B5D8E" transform="translate(288,273)"/>
<path d="M0 0 C0.33 0.99 0.66 1.98 1 3 C0.01 4.485 0.01 4.485 -1 6 C-1 5.34 -1 4.68 -1 4 C-2.32 4 -3.64 4 -5 4 C-5 3.34 -5 2.68 -5 2 C-3.35 1.34 -1.7 0.68 0 0 Z " fill="#23497C" transform="translate(294,269)"/>
<path d="M0 0 C0.99 0.495 0.99 0.495 2 1 C2.73075648 3.3140622 3.40138258 5.64828869 4 8 C2.68 7.67 1.36 7.34 0 7 C0 4.69 0 2.38 0 0 Z " fill="#1F487A" transform="translate(130,221)"/>
<path d="M0 0 C0.99 0 1.98 0 3 0 C2.34 1.98 1.68 3.96 1 6 C-0.32 5.34 -1.64 4.68 -3 4 C-2.34 3.67 -1.68 3.34 -1 3 C-0.67 2.01 -0.34 1.02 0 0 Z " fill="#AF9261" transform="translate(39,217)"/>
<path d="M0 0 C2.64 0 5.28 0 8 0 C4.81237635 2.12508244 2.73487777 2.5020163 -1 3 C-0.67 2.01 -0.34 1.02 0 0 Z " fill="#B28E61" transform="translate(101,205)"/>
<path d="M0 0 C0.99 0 1.98 0 3 0 C3.66 1.65 4.32 3.3 5 5 C3.35 5.33 1.7 5.66 0 6 C0 4.02 0 2.04 0 0 Z " fill="#39384F" transform="translate(42,119)"/>
<path d="M0 0 C0.99 0 1.98 0 3 0 C2.67 1.32 2.34 2.64 2 4 C1.34 4 0.68 4 0 4 C0 2.68 0 1.36 0 0 Z " fill="#B7A882" transform="translate(122,188)"/>
</svg>
